<mxfile host="Electron" modified="2025-02-13T14:03:32.758Z" agent="Mozilla/5.0 (Windows NT 10.0; Win64; x64) AppleWebKit/537.36 (KHTML, like Gecko) draw.io/24.0.4 Chrome/120.0.6099.109 Electron/28.1.0 Safari/537.36" etag="OKC6_blM262z9Gmtj6q6" version="24.0.4" type="device" pages="6">
  <diagram id="L9suNXlRVn20kb2OeD3u" name="Mapeamento do negocio">
    <mxGraphModel dx="1434" dy="2125" grid="1" gridSize="10" guides="1" tooltips="1" connect="1" arrows="1" fold="1" page="1" pageScale="1" pageWidth="827" pageHeight="1169" math="0" shadow="0">
      <root>
        <mxCell id="0" />
        <mxCell id="1" parent="0" />
        <mxCell id="eTmm0g8DlbrHWv06ZE_E-4" value="" style="edgeStyle=orthogonalEdgeStyle;rounded=0;orthogonalLoop=1;jettySize=auto;html=1;fillColor=#dae8fc;strokeColor=#6c8ebf;" edge="1" parent="1" source="eTmm0g8DlbrHWv06ZE_E-2" target="eTmm0g8DlbrHWv06ZE_E-3">
          <mxGeometry relative="1" as="geometry" />
        </mxCell>
        <mxCell id="eTmm0g8DlbrHWv06ZE_E-10" style="edgeStyle=orthogonalEdgeStyle;rounded=0;orthogonalLoop=1;jettySize=auto;html=1;exitX=1;exitY=0;exitDx=0;exitDy=0;exitPerimeter=0;fillColor=#dae8fc;strokeColor=#6c8ebf;strokeWidth=3;" edge="1" parent="1" source="eTmm0g8DlbrHWv06ZE_E-2" target="eTmm0g8DlbrHWv06ZE_E-9">
          <mxGeometry relative="1" as="geometry">
            <Array as="points">
              <mxPoint x="480" y="360" />
              <mxPoint x="480" y="360" />
            </Array>
          </mxGeometry>
        </mxCell>
        <mxCell id="eTmm0g8DlbrHWv06ZE_E-12" style="edgeStyle=orthogonalEdgeStyle;rounded=0;orthogonalLoop=1;jettySize=auto;html=1;exitX=1;exitY=1;exitDx=0;exitDy=0;exitPerimeter=0;entryX=0;entryY=0.5;entryDx=0;entryDy=0;fillColor=#dae8fc;strokeColor=#6c8ebf;strokeWidth=3;" edge="1" parent="1" source="eTmm0g8DlbrHWv06ZE_E-2" target="eTmm0g8DlbrHWv06ZE_E-11">
          <mxGeometry relative="1" as="geometry">
            <Array as="points">
              <mxPoint x="430" y="680" />
              <mxPoint x="430" y="680" />
            </Array>
          </mxGeometry>
        </mxCell>
        <mxCell id="eTmm0g8DlbrHWv06ZE_E-2" value="" style="strokeWidth=2;html=1;shape=mxgraph.flowchart.annotation_2;align=left;labelPosition=right;pointerEvents=1;fillColor=#dae8fc;strokeColor=#6c8ebf;" vertex="1" parent="1">
          <mxGeometry x="340" y="360" width="50" height="320" as="geometry" />
        </mxCell>
        <mxCell id="eTmm0g8DlbrHWv06ZE_E-3" value="O que é necessário para criar o seu Micro-SaaS" style="whiteSpace=wrap;html=1;align=center;strokeWidth=2;pointerEvents=1;fillColor=#dae8fc;strokeColor=#6c8ebf;" vertex="1" parent="1">
          <mxGeometry x="10" y="490" width="290" height="60" as="geometry" />
        </mxCell>
        <mxCell id="eTmm0g8DlbrHWv06ZE_E-9" value="Requisitos técnicos" style="rounded=0;whiteSpace=wrap;html=1;fillColor=#dae8fc;strokeColor=#6c8ebf;" vertex="1" parent="1">
          <mxGeometry x="520" y="330" width="237" height="60" as="geometry" />
        </mxCell>
        <mxCell id="eTmm0g8DlbrHWv06ZE_E-11" value="Requisitos não técnicos" style="rounded=0;whiteSpace=wrap;html=1;fillColor=#dae8fc;strokeColor=#6c8ebf;" vertex="1" parent="1">
          <mxGeometry x="510" y="650" width="237" height="60" as="geometry" />
        </mxCell>
        <mxCell id="eTmm0g8DlbrHWv06ZE_E-15" value="" style="strokeWidth=2;html=1;shape=mxgraph.flowchart.annotation_2;align=left;labelPosition=right;pointerEvents=1;fillColor=#f8cecc;strokeColor=#b85450;" vertex="1" parent="1">
          <mxGeometry x="1010" y="-480" width="50" height="480" as="geometry" />
        </mxCell>
        <mxCell id="eTmm0g8DlbrHWv06ZE_E-16" style="edgeStyle=orthogonalEdgeStyle;rounded=0;orthogonalLoop=1;jettySize=auto;html=1;entryX=0.629;entryY=0.017;entryDx=0;entryDy=0;entryPerimeter=0;strokeWidth=3;fillColor=#f8cecc;strokeColor=#b85450;" edge="1" parent="1" source="eTmm0g8DlbrHWv06ZE_E-15" target="eTmm0g8DlbrHWv06ZE_E-9">
          <mxGeometry relative="1" as="geometry" />
        </mxCell>
        <mxCell id="eTmm0g8DlbrHWv06ZE_E-19" value="&lt;h1 style=&quot;margin-top: 0px;&quot;&gt;Autenticação&lt;br&gt;&lt;/h1&gt;" style="text;html=1;whiteSpace=wrap;overflow=hidden;rounded=0;" vertex="1" parent="1">
          <mxGeometry x="1100" y="-480" width="159" height="40" as="geometry" />
        </mxCell>
        <mxCell id="eTmm0g8DlbrHWv06ZE_E-22" value="&lt;h1 style=&quot;margin-top: 0px;&quot;&gt;Gerenciamento de usuários&lt;/h1&gt;" style="text;html=1;whiteSpace=wrap;overflow=hidden;rounded=0;" vertex="1" parent="1">
          <mxGeometry x="1100" y="-380" width="350" height="40" as="geometry" />
        </mxCell>
        <mxCell id="eTmm0g8DlbrHWv06ZE_E-34" value="" style="edgeStyle=orthogonalEdgeStyle;rounded=0;orthogonalLoop=1;jettySize=auto;html=1;" edge="1" parent="1" source="eTmm0g8DlbrHWv06ZE_E-23" target="eTmm0g8DlbrHWv06ZE_E-33">
          <mxGeometry relative="1" as="geometry" />
        </mxCell>
        <mxCell id="eTmm0g8DlbrHWv06ZE_E-23" value="&lt;h1 style=&quot;margin-top: 0px;&quot;&gt;Pagamentos&lt;/h1&gt;" style="text;html=1;whiteSpace=wrap;overflow=hidden;rounded=0;" vertex="1" parent="1">
          <mxGeometry x="1100" y="-280" width="160" height="40" as="geometry" />
        </mxCell>
        <mxCell id="eTmm0g8DlbrHWv06ZE_E-24" value="&lt;h1 style=&quot;margin-top: 0px;&quot;&gt;Integração para geração de NFS-e&lt;/h1&gt;" style="text;html=1;whiteSpace=wrap;overflow=hidden;rounded=0;" vertex="1" parent="1">
          <mxGeometry x="1100" y="-160" width="410" height="40" as="geometry" />
        </mxCell>
        <mxCell id="eTmm0g8DlbrHWv06ZE_E-25" value="&lt;h1 style=&quot;margin-top: 0px;&quot;&gt;Planos de contratação&lt;/h1&gt;" style="text;html=1;whiteSpace=wrap;overflow=hidden;rounded=0;" vertex="1" parent="1">
          <mxGeometry x="1100" y="-40" width="270" height="40" as="geometry" />
        </mxCell>
        <mxCell id="eTmm0g8DlbrHWv06ZE_E-32" value="https://www.youtube.com/watch?v=4ErfNkyP940&amp;amp;t=924s" style="text;html=1;align=center;verticalAlign=middle;resizable=0;points=[];autosize=1;strokeColor=none;fillColor=none;" vertex="1" parent="1">
          <mxGeometry x="725" y="-662" width="330" height="30" as="geometry" />
        </mxCell>
        <mxCell id="eTmm0g8DlbrHWv06ZE_E-33" value="&lt;h1 style=&quot;margin-top: 0px;&quot;&gt;Pagamentos&lt;/h1&gt;" style="text;html=1;whiteSpace=wrap;overflow=hidden;rounded=0;" vertex="1" parent="1">
          <mxGeometry x="1660" y="-280" width="160" height="40" as="geometry" />
        </mxCell>
      </root>
    </mxGraphModel>
  </diagram>
  <diagram id="UpnjxEBypnCfxaO6hWaG" name="API Gateway">
    <mxGraphModel dx="1434" dy="836" grid="1" gridSize="10" guides="1" tooltips="1" connect="1" arrows="1" fold="1" page="1" pageScale="1" pageWidth="827" pageHeight="1169" math="0" shadow="0">
      <root>
        <mxCell id="0" />
        <mxCell id="1" parent="0" />
        <mxCell id="lg76CUhgI_q97KbNqbia-1" style="edgeStyle=orthogonalEdgeStyle;rounded=0;orthogonalLoop=1;jettySize=auto;html=1;entryX=0;entryY=0.5;entryDx=0;entryDy=0;exitX=0.25;exitY=0;exitDx=0;exitDy=0;fillColor=#d5e8d4;strokeColor=#82b366;strokeWidth=2;sketch=1;curveFitting=1;jiggle=2;" parent="1" source="lg76CUhgI_q97KbNqbia-4" target="lg76CUhgI_q97KbNqbia-10" edge="1">
          <mxGeometry relative="1" as="geometry">
            <Array as="points">
              <mxPoint x="300" y="273" />
              <mxPoint x="300" y="260" />
              <mxPoint x="353" y="260" />
              <mxPoint x="353" y="240" />
            </Array>
          </mxGeometry>
        </mxCell>
        <mxCell id="lg76CUhgI_q97KbNqbia-2" style="edgeStyle=orthogonalEdgeStyle;rounded=0;orthogonalLoop=1;jettySize=auto;html=1;strokeWidth=2;fillColor=#dae8fc;strokeColor=#6c8ebf;sketch=1;curveFitting=1;jiggle=2;" parent="1" source="lg76CUhgI_q97KbNqbia-4" target="lg76CUhgI_q97KbNqbia-11" edge="1">
          <mxGeometry relative="1" as="geometry">
            <Array as="points">
              <mxPoint x="353" y="360" />
              <mxPoint x="353" y="320" />
            </Array>
          </mxGeometry>
        </mxCell>
        <mxCell id="lg76CUhgI_q97KbNqbia-4" value="API Gateway" style="rounded=0;whiteSpace=wrap;html=1;rotation=90;verticalAlign=middle;horizontal=0;fontStyle=1;fillColor=#f5f5f5;fontColor=#333333;strokeColor=#666666;sketch=1;curveFitting=1;jiggle=2;" parent="1" vertex="1">
          <mxGeometry x="140" y="350" width="190" height="80" as="geometry" />
        </mxCell>
        <mxCell id="lg76CUhgI_q97KbNqbia-5" style="edgeStyle=orthogonalEdgeStyle;rounded=0;orthogonalLoop=1;jettySize=auto;html=1;fillColor=#f8cecc;strokeColor=#b85450;strokeWidth=2;sketch=1;curveFitting=1;jiggle=2;" parent="1" source="lg76CUhgI_q97KbNqbia-6" target="lg76CUhgI_q97KbNqbia-4" edge="1">
          <mxGeometry relative="1" as="geometry">
            <Array as="points">
              <mxPoint x="110" y="250" />
              <mxPoint x="110" y="390" />
            </Array>
          </mxGeometry>
        </mxCell>
        <mxCell id="lg76CUhgI_q97KbNqbia-6" value="User" style="shape=umlActor;verticalLabelPosition=bottom;verticalAlign=top;html=1;outlineConnect=0;fillColor=#f8cecc;strokeColor=#b85450;sketch=1;curveFitting=1;jiggle=2;" parent="1" vertex="1">
          <mxGeometry x="30" y="220" width="30" height="60" as="geometry" />
        </mxCell>
        <mxCell id="lg76CUhgI_q97KbNqbia-7" value="User" style="shape=umlActor;verticalLabelPosition=bottom;verticalAlign=top;html=1;outlineConnect=0;fillColor=#f8cecc;strokeColor=#b85450;sketch=1;curveFitting=1;jiggle=2;" parent="1" vertex="1">
          <mxGeometry x="30" y="500" width="30" height="60" as="geometry" />
        </mxCell>
        <mxCell id="lg76CUhgI_q97KbNqbia-8" style="edgeStyle=orthogonalEdgeStyle;rounded=0;orthogonalLoop=1;jettySize=auto;html=1;entryX=0.632;entryY=1.013;entryDx=0;entryDy=0;entryPerimeter=0;fillColor=#f8cecc;strokeColor=#b85450;strokeWidth=2;sketch=1;curveFitting=1;jiggle=2;" parent="1" source="lg76CUhgI_q97KbNqbia-7" target="lg76CUhgI_q97KbNqbia-4" edge="1">
          <mxGeometry relative="1" as="geometry">
            <Array as="points">
              <mxPoint x="110" y="530" />
              <mxPoint x="110" y="415" />
            </Array>
          </mxGeometry>
        </mxCell>
        <mxCell id="lg76CUhgI_q97KbNqbia-9" style="edgeStyle=orthogonalEdgeStyle;rounded=0;orthogonalLoop=1;jettySize=auto;html=1;strokeWidth=2;fillColor=#d5e8d4;strokeColor=#82b366;sketch=1;curveFitting=1;jiggle=2;" parent="1" source="lg76CUhgI_q97KbNqbia-10" target="lg76CUhgI_q97KbNqbia-14" edge="1">
          <mxGeometry relative="1" as="geometry" />
        </mxCell>
        <mxCell id="lg76CUhgI_q97KbNqbia-10" value="&lt;span style=&quot;font-size: 16px; font-weight: 700;&quot;&gt;API.Exemple.Core.08&lt;/span&gt;" style="rounded=1;whiteSpace=wrap;html=1;fillColor=#d5e8d4;strokeColor=#82b366;sketch=1;curveFitting=1;jiggle=2;" parent="1" vertex="1">
          <mxGeometry x="430" y="210" width="220" height="60" as="geometry" />
        </mxCell>
        <mxCell id="lg76CUhgI_q97KbNqbia-11" value="&lt;span style=&quot;font-size: 16px;&quot;&gt;&lt;b&gt;API.Customer.Core.08&lt;/b&gt;&lt;/span&gt;" style="rounded=1;whiteSpace=wrap;html=1;fillColor=#dae8fc;strokeColor=#6c8ebf;sketch=1;curveFitting=1;jiggle=2;" parent="1" vertex="1">
          <mxGeometry x="430" y="290" width="240" height="60" as="geometry" />
        </mxCell>
        <mxCell id="lg76CUhgI_q97KbNqbia-12" style="edgeStyle=orthogonalEdgeStyle;rounded=0;orthogonalLoop=1;jettySize=auto;html=1;strokeWidth=2;fillColor=#ffe6cc;strokeColor=#d79b00;sketch=1;curveFitting=1;jiggle=2;entryX=0;entryY=0;entryDx=0;entryDy=27.5;entryPerimeter=0;" parent="1" source="lg76CUhgI_q97KbNqbia-13" target="lg76CUhgI_q97KbNqbia-14" edge="1">
          <mxGeometry relative="1" as="geometry">
            <mxPoint x="715" y="740" as="targetPoint" />
          </mxGeometry>
        </mxCell>
        <mxCell id="lg76CUhgI_q97KbNqbia-13" value="&lt;span style=&quot;font-size: 16px; font-weight: 700;&quot;&gt;API.HR.Core.08&lt;/span&gt;" style="rounded=1;whiteSpace=wrap;html=1;fillColor=#ffe6cc;strokeColor=#d79b00;sketch=1;curveFitting=1;jiggle=2;" parent="1" vertex="1">
          <mxGeometry x="430" y="370" width="240" height="60" as="geometry" />
        </mxCell>
        <mxCell id="lg76CUhgI_q97KbNqbia-14" value="SQL Server" style="shape=cylinder3;whiteSpace=wrap;html=1;boundedLbl=1;backgroundOutline=1;size=15;fillColor=#d5e8d4;strokeColor=#82b366;sketch=1;curveFitting=1;jiggle=2;" parent="1" vertex="1">
          <mxGeometry x="1196" y="400" width="90" height="80" as="geometry" />
        </mxCell>
        <mxCell id="lg76CUhgI_q97KbNqbia-16" style="edgeStyle=orthogonalEdgeStyle;rounded=0;orthogonalLoop=1;jettySize=auto;html=1;entryX=0;entryY=0;entryDx=0;entryDy=27.5;entryPerimeter=0;fillColor=#dae8fc;strokeColor=#6c8ebf;strokeWidth=2;sketch=1;curveFitting=1;jiggle=2;" parent="1" source="lg76CUhgI_q97KbNqbia-11" target="lg76CUhgI_q97KbNqbia-14" edge="1">
          <mxGeometry relative="1" as="geometry">
            <mxPoint x="670" y="322.5" as="targetPoint" />
            <Array as="points">
              <mxPoint x="873" y="320" />
              <mxPoint x="873" y="310" />
              <mxPoint x="1196" y="310" />
            </Array>
          </mxGeometry>
        </mxCell>
        <mxCell id="lg76CUhgI_q97KbNqbia-18" value="&lt;span style=&quot;color: rgb(51, 51, 51); font-weight: 700;&quot;&gt;API Gateway&lt;/span&gt;" style="rounded=0;whiteSpace=wrap;html=1;sketch=1;curveFitting=1;jiggle=2;" parent="1" vertex="1">
          <mxGeometry x="20" y="40" width="1300" height="60" as="geometry" />
        </mxCell>
        <mxCell id="lg76CUhgI_q97KbNqbia-19" value="&lt;b&gt;&lt;font style=&quot;font-size: 18px;&quot;&gt;1&lt;/font&gt;&lt;/b&gt;" style="ellipse;whiteSpace=wrap;html=1;aspect=fixed;sketch=1;curveFitting=1;jiggle=2;" parent="1" vertex="1">
          <mxGeometry x="27" y="45" width="50" height="50" as="geometry" />
        </mxCell>
        <mxCell id="lg76CUhgI_q97KbNqbia-20" value="&lt;font color=&quot;#333333&quot;&gt;&lt;b&gt;API&lt;/b&gt;&lt;/font&gt;" style="rounded=0;whiteSpace=wrap;html=1;sketch=1;curveFitting=1;jiggle=2;" parent="1" vertex="1">
          <mxGeometry x="20" y="720" width="1300" height="60" as="geometry" />
        </mxCell>
        <mxCell id="lg76CUhgI_q97KbNqbia-21" value="&lt;b&gt;&lt;font style=&quot;font-size: 18px;&quot;&gt;2&lt;/font&gt;&lt;/b&gt;" style="ellipse;whiteSpace=wrap;html=1;aspect=fixed;sketch=1;curveFitting=1;jiggle=2;" parent="1" vertex="1">
          <mxGeometry x="27" y="725" width="50" height="50" as="geometry" />
        </mxCell>
        <mxCell id="lg76CUhgI_q97KbNqbia-22" style="edgeStyle=orthogonalEdgeStyle;rounded=0;orthogonalLoop=1;jettySize=auto;html=1;entryX=1;entryY=0.75;entryDx=0;entryDy=0;fillColor=#dae8fc;strokeColor=#6c8ebf;strokeWidth=2;sketch=1;curveFitting=1;jiggle=2;" parent="1" source="lg76CUhgI_q97KbNqbia-23" target="lg76CUhgI_q97KbNqbia-36" edge="1">
          <mxGeometry relative="1" as="geometry">
            <Array as="points">
              <mxPoint x="580" y="945" />
              <mxPoint x="580" y="945" />
            </Array>
          </mxGeometry>
        </mxCell>
        <mxCell id="lg76CUhgI_q97KbNqbia-23" value="SQL DataBase" style="shape=cylinder3;whiteSpace=wrap;html=1;boundedLbl=1;backgroundOutline=1;size=15;sketch=1;curveFitting=1;jiggle=2;fillColor=#f5f5f5;fontColor=#333333;strokeColor=#666666;" parent="1" vertex="1">
          <mxGeometry x="650" y="830" width="150" height="130" as="geometry" />
        </mxCell>
        <mxCell id="lg76CUhgI_q97KbNqbia-24" style="edgeStyle=orthogonalEdgeStyle;rounded=0;orthogonalLoop=1;jettySize=auto;html=1;entryX=1;entryY=0.5;entryDx=0;entryDy=0;sketch=1;curveFitting=1;jiggle=2;fillColor=#dae8fc;strokeColor=#6c8ebf;strokeWidth=2;" parent="1" source="lg76CUhgI_q97KbNqbia-25" target="lg76CUhgI_q97KbNqbia-31" edge="1">
          <mxGeometry relative="1" as="geometry">
            <Array as="points">
              <mxPoint x="580" y="1140" />
              <mxPoint x="580" y="1140" />
            </Array>
          </mxGeometry>
        </mxCell>
        <mxCell id="lg76CUhgI_q97KbNqbia-25" value="Cache Redis" style="shape=cylinder3;whiteSpace=wrap;html=1;boundedLbl=1;backgroundOutline=1;size=15;sketch=1;curveFitting=1;jiggle=2;fillColor=#f5f5f5;fontColor=#333333;strokeColor=#666666;" parent="1" vertex="1">
          <mxGeometry x="640" y="1070" width="115" height="100" as="geometry" />
        </mxCell>
        <mxCell id="lg76CUhgI_q97KbNqbia-26" style="edgeStyle=orthogonalEdgeStyle;rounded=0;orthogonalLoop=1;jettySize=auto;html=1;entryX=0;entryY=0.25;entryDx=0;entryDy=0;fillColor=#e1d5e7;strokeColor=#9673a6;sketch=1;curveFitting=1;jiggle=2;strokeWidth=2;" parent="1" source="lg76CUhgI_q97KbNqbia-27" target="lg76CUhgI_q97KbNqbia-36" edge="1">
          <mxGeometry relative="1" as="geometry" />
        </mxCell>
        <mxCell id="lg76CUhgI_q97KbNqbia-27" value="User" style="shape=umlActor;verticalLabelPosition=bottom;verticalAlign=top;html=1;outlineConnect=0;fillColor=#f8cecc;strokeColor=#b85450;sketch=1;curveFitting=1;jiggle=2;" parent="1" vertex="1">
          <mxGeometry x="20" y="890" width="30" height="60" as="geometry" />
        </mxCell>
        <mxCell id="lg76CUhgI_q97KbNqbia-28" style="edgeStyle=orthogonalEdgeStyle;rounded=0;orthogonalLoop=1;jettySize=auto;html=1;entryX=0.017;entryY=0.133;entryDx=0;entryDy=0;entryPerimeter=0;strokeWidth=2;fillColor=#e1d5e7;strokeColor=#9673a6;sketch=1;curveFitting=1;jiggle=2;" parent="1" source="lg76CUhgI_q97KbNqbia-29" target="lg76CUhgI_q97KbNqbia-31" edge="1">
          <mxGeometry relative="1" as="geometry" />
        </mxCell>
        <mxCell id="lg76CUhgI_q97KbNqbia-29" value="User" style="shape=umlActor;verticalLabelPosition=bottom;verticalAlign=top;html=1;outlineConnect=0;fillColor=#f8cecc;strokeColor=#b85450;sketch=1;curveFitting=1;jiggle=2;" parent="1" vertex="1">
          <mxGeometry x="20" y="1090" width="30" height="60" as="geometry" />
        </mxCell>
        <mxCell id="lg76CUhgI_q97KbNqbia-30" style="edgeStyle=orthogonalEdgeStyle;rounded=0;orthogonalLoop=1;jettySize=auto;html=1;fillColor=#e1d5e7;strokeColor=#9673a6;strokeWidth=2;sketch=1;curveFitting=1;jiggle=2;" parent="1" source="lg76CUhgI_q97KbNqbia-31" target="lg76CUhgI_q97KbNqbia-25" edge="1">
          <mxGeometry relative="1" as="geometry">
            <Array as="points">
              <mxPoint x="470" y="1120" />
              <mxPoint x="470" y="1120" />
            </Array>
          </mxGeometry>
        </mxCell>
        <mxCell id="lg76CUhgI_q97KbNqbia-31" value="Query&amp;nbsp;Handler" style="rounded=0;whiteSpace=wrap;html=1;fillColor=#fff2cc;strokeColor=#d6b656;sketch=1;curveFitting=1;jiggle=2;" parent="1" vertex="1">
          <mxGeometry x="290" y="1110" width="120" height="60" as="geometry" />
        </mxCell>
        <mxCell id="lg76CUhgI_q97KbNqbia-32" style="edgeStyle=orthogonalEdgeStyle;rounded=0;orthogonalLoop=1;jettySize=auto;html=1;entryX=1;entryY=1;entryDx=0;entryDy=0;entryPerimeter=0;fillColor=#dae8fc;strokeColor=#6c8ebf;strokeWidth=2;sketch=1;curveFitting=1;jiggle=2;" parent="1" source="lg76CUhgI_q97KbNqbia-31" target="lg76CUhgI_q97KbNqbia-29" edge="1">
          <mxGeometry relative="1" as="geometry">
            <Array as="points">
              <mxPoint x="170" y="1140" />
              <mxPoint x="170" y="1150" />
            </Array>
          </mxGeometry>
        </mxCell>
        <mxCell id="lg76CUhgI_q97KbNqbia-33" value="GET" style="text;html=1;align=center;verticalAlign=middle;resizable=0;points=[];autosize=1;strokeColor=none;fillColor=none;sketch=1;curveFitting=1;jiggle=2;" parent="1" vertex="1">
          <mxGeometry x="105" y="1088" width="50" height="30" as="geometry" />
        </mxCell>
        <mxCell id="lg76CUhgI_q97KbNqbia-34" style="edgeStyle=orthogonalEdgeStyle;rounded=0;orthogonalLoop=1;jettySize=auto;html=1;entryX=0.06;entryY=0.954;entryDx=0;entryDy=0;entryPerimeter=0;fillColor=#e1d5e7;strokeColor=#9673a6;strokeWidth=2;sketch=1;curveFitting=1;jiggle=2;" parent="1" source="lg76CUhgI_q97KbNqbia-31" target="lg76CUhgI_q97KbNqbia-23" edge="1">
          <mxGeometry relative="1" as="geometry">
            <Array as="points">
              <mxPoint x="350" y="1080" />
              <mxPoint x="580" y="1080" />
              <mxPoint x="580" y="970" />
              <mxPoint x="659" y="970" />
            </Array>
          </mxGeometry>
        </mxCell>
        <mxCell id="lg76CUhgI_q97KbNqbia-35" style="edgeStyle=orthogonalEdgeStyle;rounded=0;orthogonalLoop=1;jettySize=auto;html=1;fillColor=#dae8fc;strokeColor=#6c8ebf;strokeWidth=2;sketch=1;curveFitting=1;jiggle=2;" parent="1" source="lg76CUhgI_q97KbNqbia-36" target="lg76CUhgI_q97KbNqbia-27" edge="1">
          <mxGeometry relative="1" as="geometry">
            <Array as="points">
              <mxPoint x="165" y="930" />
              <mxPoint x="165" y="940" />
            </Array>
          </mxGeometry>
        </mxCell>
        <mxCell id="lg76CUhgI_q97KbNqbia-36" value="Command" style="rounded=0;whiteSpace=wrap;html=1;fillColor=#d5e8d4;strokeColor=#82b366;sketch=1;curveFitting=1;jiggle=2;" parent="1" vertex="1">
          <mxGeometry x="280" y="900" width="120" height="60" as="geometry" />
        </mxCell>
        <mxCell id="lg76CUhgI_q97KbNqbia-37" style="edgeStyle=orthogonalEdgeStyle;rounded=0;orthogonalLoop=1;jettySize=auto;html=1;entryX=0.007;entryY=0.215;entryDx=0;entryDy=0;entryPerimeter=0;fillColor=#e1d5e7;strokeColor=#9673a6;sketch=1;curveFitting=1;jiggle=2;strokeWidth=2;" parent="1" source="lg76CUhgI_q97KbNqbia-36" target="lg76CUhgI_q97KbNqbia-23" edge="1">
          <mxGeometry relative="1" as="geometry" />
        </mxCell>
        <mxCell id="lg76CUhgI_q97KbNqbia-38" style="edgeStyle=orthogonalEdgeStyle;rounded=0;orthogonalLoop=1;jettySize=auto;html=1;entryX=0.217;entryY=0.05;entryDx=0;entryDy=0;entryPerimeter=0;fillColor=#d5e8d4;strokeColor=#82b366;sketch=1;curveFitting=1;jiggle=2;strokeWidth=2;" parent="1" source="lg76CUhgI_q97KbNqbia-36" target="lg76CUhgI_q97KbNqbia-25" edge="1">
          <mxGeometry relative="1" as="geometry">
            <Array as="points">
              <mxPoint x="340" y="1000" />
              <mxPoint x="665" y="1000" />
            </Array>
          </mxGeometry>
        </mxCell>
        <mxCell id="lg76CUhgI_q97KbNqbia-39" value="POST / PUT / DELETE" style="text;html=1;align=center;verticalAlign=middle;resizable=0;points=[];autosize=1;strokeColor=none;fillColor=none;sketch=1;curveFitting=1;jiggle=2;" parent="1" vertex="1">
          <mxGeometry x="85" y="868" width="150" height="30" as="geometry" />
        </mxCell>
        <mxCell id="lg76CUhgI_q97KbNqbia-40" value="&lt;font color=&quot;#333333&quot;&gt;&lt;b&gt;Server&lt;/b&gt;&lt;/font&gt;" style="rounded=0;whiteSpace=wrap;html=1;" parent="1" vertex="1">
          <mxGeometry x="20" y="1230" width="1300" height="60" as="geometry" />
        </mxCell>
        <mxCell id="lg76CUhgI_q97KbNqbia-41" value="&lt;b&gt;&lt;font style=&quot;font-size: 18px;&quot;&gt;3&lt;/font&gt;&lt;/b&gt;" style="ellipse;whiteSpace=wrap;html=1;aspect=fixed;" parent="1" vertex="1">
          <mxGeometry x="27" y="1235" width="50" height="50" as="geometry" />
        </mxCell>
        <mxCell id="lg76CUhgI_q97KbNqbia-42" style="edgeStyle=orthogonalEdgeStyle;rounded=0;orthogonalLoop=1;jettySize=auto;html=1;sketch=1;curveFitting=1;jiggle=2;strokeWidth=2;fillColor=#dae8fc;strokeColor=#6c8ebf;" parent="1" source="lg76CUhgI_q97KbNqbia-43" target="lg76CUhgI_q97KbNqbia-45" edge="1">
          <mxGeometry relative="1" as="geometry">
            <Array as="points">
              <mxPoint x="700" y="1598" />
              <mxPoint x="703" y="1598" />
            </Array>
          </mxGeometry>
        </mxCell>
        <mxCell id="lg76CUhgI_q97KbNqbia-43" value="SQL DataBase" style="shape=cylinder3;whiteSpace=wrap;html=1;boundedLbl=1;backgroundOutline=1;size=15;sketch=1;curveFitting=1;jiggle=2;fillColor=#dae8fc;strokeColor=#6c8ebf;" parent="1" vertex="1">
          <mxGeometry x="640" y="1375" width="150" height="130" as="geometry" />
        </mxCell>
        <mxCell id="lg76CUhgI_q97KbNqbia-44" style="edgeStyle=orthogonalEdgeStyle;rounded=0;orthogonalLoop=1;jettySize=auto;html=1;entryX=1;entryY=0.75;entryDx=0;entryDy=0;strokeWidth=2;sketch=1;curveFitting=1;jiggle=2;fillColor=#dae8fc;strokeColor=#6c8ebf;" parent="1" source="lg76CUhgI_q97KbNqbia-45" target="lg76CUhgI_q97KbNqbia-50" edge="1">
          <mxGeometry relative="1" as="geometry" />
        </mxCell>
        <mxCell id="lg76CUhgI_q97KbNqbia-45" value="Cache Redis" style="shape=cylinder3;whiteSpace=wrap;html=1;boundedLbl=1;backgroundOutline=1;size=15;sketch=1;curveFitting=1;jiggle=2;fillColor=#dae8fc;strokeColor=#6c8ebf;" parent="1" vertex="1">
          <mxGeometry x="645" y="1690" width="115" height="100" as="geometry" />
        </mxCell>
        <mxCell id="lg76CUhgI_q97KbNqbia-46" style="edgeStyle=orthogonalEdgeStyle;rounded=0;orthogonalLoop=1;jettySize=auto;html=1;sketch=1;curveFitting=1;jiggle=2;strokeWidth=2;fillColor=#dae8fc;strokeColor=#6c8ebf;" parent="1" source="lg76CUhgI_q97KbNqbia-47" target="lg76CUhgI_q97KbNqbia-49" edge="1">
          <mxGeometry relative="1" as="geometry">
            <Array as="points">
              <mxPoint x="80" y="1390" />
            </Array>
          </mxGeometry>
        </mxCell>
        <mxCell id="lg76CUhgI_q97KbNqbia-47" value="Client" style="rounded=0;whiteSpace=wrap;html=1;rotation=90;verticalAlign=middle;horizontal=0;fontStyle=1;fillColor=#dae8fc;strokeColor=#6c8ebf;sketch=1;curveFitting=1;jiggle=2;" parent="1" vertex="1">
          <mxGeometry x="-15" y="1512" width="190" height="80" as="geometry" />
        </mxCell>
        <mxCell id="lg76CUhgI_q97KbNqbia-48" style="edgeStyle=orthogonalEdgeStyle;rounded=0;orthogonalLoop=1;jettySize=auto;html=1;strokeWidth=2;sketch=1;curveFitting=1;jiggle=2;fillColor=#dae8fc;strokeColor=#6c8ebf;" parent="1" source="lg76CUhgI_q97KbNqbia-49" target="lg76CUhgI_q97KbNqbia-43" edge="1">
          <mxGeometry relative="1" as="geometry" />
        </mxCell>
        <mxCell id="lg76CUhgI_q97KbNqbia-49" value="Domain Model" style="rounded=1;whiteSpace=wrap;html=1;fillColor=#dae8fc;strokeColor=#6c8ebf;sketch=1;curveFitting=1;jiggle=2;" parent="1" vertex="1">
          <mxGeometry x="320" y="1370" width="120" height="60" as="geometry" />
        </mxCell>
        <mxCell id="lg76CUhgI_q97KbNqbia-50" value="Read Queries" style="rounded=1;whiteSpace=wrap;html=1;fillColor=#dae8fc;strokeColor=#6c8ebf;sketch=1;curveFitting=1;jiggle=2;" parent="1" vertex="1">
          <mxGeometry x="320" y="1690" width="120" height="60" as="geometry" />
        </mxCell>
        <mxCell id="lg76CUhgI_q97KbNqbia-51" value="Write API" style="shape=note;whiteSpace=wrap;html=1;backgroundOutline=1;darkOpacity=0.05;sketch=1;curveFitting=1;jiggle=2;fillColor=#fff2cc;strokeColor=#d6b656;" parent="1" vertex="1">
          <mxGeometry x="160" y="1390" width="80" height="100" as="geometry" />
        </mxCell>
        <mxCell id="lg76CUhgI_q97KbNqbia-52" style="edgeStyle=orthogonalEdgeStyle;rounded=0;orthogonalLoop=1;jettySize=auto;html=1;entryX=0.008;entryY=0.617;entryDx=0;entryDy=0;entryPerimeter=0;sketch=1;curveFitting=1;jiggle=2;strokeWidth=2;fillColor=#dae8fc;strokeColor=#6c8ebf;" parent="1" source="lg76CUhgI_q97KbNqbia-47" target="lg76CUhgI_q97KbNqbia-50" edge="1">
          <mxGeometry relative="1" as="geometry">
            <Array as="points">
              <mxPoint x="80" y="1727" />
            </Array>
          </mxGeometry>
        </mxCell>
        <mxCell id="lg76CUhgI_q97KbNqbia-53" value="Read API" style="shape=note;whiteSpace=wrap;html=1;backgroundOutline=1;darkOpacity=0.05;sketch=1;curveFitting=1;jiggle=2;fillColor=#fff2cc;strokeColor=#d6b656;" parent="1" vertex="1">
          <mxGeometry x="160" y="1628" width="80" height="100" as="geometry" />
        </mxCell>
        <mxCell id="lg76CUhgI_q97KbNqbia-54" value="Sync" style="shape=note;whiteSpace=wrap;html=1;backgroundOutline=1;darkOpacity=0.05;sketch=1;curveFitting=1;jiggle=2;fillColor=#fff2cc;strokeColor=#d6b656;" parent="1" vertex="1">
          <mxGeometry x="710" y="1540" width="80" height="100" as="geometry" />
        </mxCell>
        <mxCell id="lg76CUhgI_q97KbNqbia-55" value="Command" style="text;html=1;align=center;verticalAlign=middle;resizable=0;points=[];autosize=1;strokeColor=none;fillColor=none;strokeWidth=12;" parent="1" vertex="1">
          <mxGeometry x="80" y="1358" width="80" height="30" as="geometry" />
        </mxCell>
        <mxCell id="lg76CUhgI_q97KbNqbia-56" value="Query" style="text;html=1;align=center;verticalAlign=middle;resizable=0;points=[];autosize=1;strokeColor=none;fillColor=none;strokeWidth=12;" parent="1" vertex="1">
          <mxGeometry x="90" y="1728" width="60" height="30" as="geometry" />
        </mxCell>
        <mxCell id="lg76CUhgI_q97KbNqbia-57" value="Queries" style="text;html=1;align=center;verticalAlign=middle;resizable=0;points=[];autosize=1;strokeColor=none;fillColor=none;strokeWidth=12;" parent="1" vertex="1">
          <mxGeometry x="515" y="1750" width="70" height="30" as="geometry" />
        </mxCell>
        <mxCell id="lg76CUhgI_q97KbNqbia-58" value="Commands" style="text;html=1;align=center;verticalAlign=middle;resizable=0;points=[];autosize=1;strokeColor=none;fillColor=none;strokeWidth=12;" parent="1" vertex="1">
          <mxGeometry x="510" y="1440" width="80" height="30" as="geometry" />
        </mxCell>
        <mxCell id="5tMwFqsSyj8gy270x245-3" style="edgeStyle=orthogonalEdgeStyle;rounded=0;orthogonalLoop=1;jettySize=auto;html=1;strokeWidth=2;fillColor=#fff2cc;strokeColor=#d6b656;sketch=1;curveFitting=1;jiggle=2;" parent="1" edge="1">
          <mxGeometry relative="1" as="geometry">
            <mxPoint x="275" y="400" as="sourcePoint" />
            <mxPoint x="430" y="400" as="targetPoint" />
            <Array as="points">
              <mxPoint x="360" y="400" />
              <mxPoint x="360" y="400" />
            </Array>
          </mxGeometry>
        </mxCell>
        <mxCell id="MnZ8lZNe-N6XdQyVDCFG-1" value="&lt;span style=&quot;color: rgb(0, 0, 0); font-size: 16px; font-weight: 700;&quot;&gt;API.Freelancer.Core.08&lt;/span&gt;" style="rounded=1;whiteSpace=wrap;html=1;fillColor=#f5f5f5;strokeColor=#666666;sketch=1;curveFitting=1;jiggle=2;fontColor=#333333;" parent="1" vertex="1">
          <mxGeometry x="430" y="450" width="240" height="60" as="geometry" />
        </mxCell>
        <mxCell id="MnZ8lZNe-N6XdQyVDCFG-2" style="edgeStyle=orthogonalEdgeStyle;rounded=0;orthogonalLoop=1;jettySize=auto;html=1;strokeWidth=2;fillColor=#f5f5f5;strokeColor=#666666;sketch=1;curveFitting=1;jiggle=2;entryX=0;entryY=0.5;entryDx=0;entryDy=0;exitX=1;exitY=0.25;exitDx=0;exitDy=0;" parent="1" source="lg76CUhgI_q97KbNqbia-4" target="MnZ8lZNe-N6XdQyVDCFG-1" edge="1">
          <mxGeometry relative="1" as="geometry">
            <mxPoint x="265" y="520" as="sourcePoint" />
            <mxPoint x="420" y="520" as="targetPoint" />
            <Array as="points" />
          </mxGeometry>
        </mxCell>
        <mxCell id="Docn9kYZ7vSpXgYzr5KD-1" value="&lt;span style=&quot;font-size: 16px; font-weight: 700;&quot;&gt;API.Clinic.Core.08&lt;/span&gt;" style="rounded=1;whiteSpace=wrap;html=1;fillColor=#f8cecc;strokeColor=#b85450;sketch=1;curveFitting=1;jiggle=2;" parent="1" vertex="1">
          <mxGeometry x="430" y="540" width="240" height="60" as="geometry" />
        </mxCell>
        <mxCell id="Docn9kYZ7vSpXgYzr5KD-2" style="edgeStyle=orthogonalEdgeStyle;rounded=0;orthogonalLoop=1;jettySize=auto;html=1;strokeWidth=2;fillColor=#f8cecc;strokeColor=#b85450;sketch=1;curveFitting=1;jiggle=2;entryX=0;entryY=0.5;entryDx=0;entryDy=0;exitX=1.016;exitY=0.913;exitDx=0;exitDy=0;exitPerimeter=0;" parent="1" source="lg76CUhgI_q97KbNqbia-4" target="Docn9kYZ7vSpXgYzr5KD-1" edge="1">
          <mxGeometry relative="1" as="geometry">
            <mxPoint x="255" y="495" as="sourcePoint" />
            <mxPoint x="420" y="600" as="targetPoint" />
            <Array as="points">
              <mxPoint x="202" y="490" />
              <mxPoint x="230" y="490" />
              <mxPoint x="230" y="570" />
            </Array>
          </mxGeometry>
        </mxCell>
        <mxCell id="Docn9kYZ7vSpXgYzr5KD-4" style="edgeStyle=orthogonalEdgeStyle;rounded=0;orthogonalLoop=1;jettySize=auto;html=1;strokeWidth=2;fillColor=#f5f5f5;strokeColor=#666666;sketch=1;curveFitting=1;jiggle=2;exitX=1;exitY=0.5;exitDx=0;exitDy=0;" parent="1" source="MnZ8lZNe-N6XdQyVDCFG-1" target="lg76CUhgI_q97KbNqbia-14" edge="1">
          <mxGeometry relative="1" as="geometry">
            <mxPoint x="680" y="480" as="sourcePoint" />
            <mxPoint x="1206" y="508" as="targetPoint" />
            <Array as="points">
              <mxPoint x="933" y="480" />
              <mxPoint x="933" y="450" />
            </Array>
          </mxGeometry>
        </mxCell>
        <mxCell id="Docn9kYZ7vSpXgYzr5KD-5" style="edgeStyle=orthogonalEdgeStyle;rounded=0;orthogonalLoop=1;jettySize=auto;html=1;strokeWidth=2;fillColor=#f5f5f5;strokeColor=#666666;sketch=1;curveFitting=1;jiggle=2;exitX=1;exitY=0.5;exitDx=0;exitDy=0;" parent="1" source="Docn9kYZ7vSpXgYzr5KD-1" target="lg76CUhgI_q97KbNqbia-14" edge="1">
          <mxGeometry relative="1" as="geometry">
            <mxPoint x="680" y="570" as="sourcePoint" />
            <mxPoint x="1206" y="530" as="targetPoint" />
            <Array as="points">
              <mxPoint x="1230" y="570" />
            </Array>
          </mxGeometry>
        </mxCell>
        <mxCell id="YD12FDsrwOs8ktwwAdGp-1" value="&lt;span style=&quot;font-size: 16px; font-weight: 700;&quot;&gt;API.InventoryControl.Core.08&lt;/span&gt;" style="rounded=1;whiteSpace=wrap;html=1;fillColor=#d5e8d4;strokeColor=#82b366;sketch=1;curveFitting=1;jiggle=2;" parent="1" vertex="1">
          <mxGeometry x="430" y="630" width="240" height="60" as="geometry" />
        </mxCell>
        <mxCell id="YD12FDsrwOs8ktwwAdGp-2" style="edgeStyle=orthogonalEdgeStyle;rounded=0;orthogonalLoop=1;jettySize=auto;html=1;strokeWidth=2;fillColor=#d5e8d4;strokeColor=#82b366;sketch=1;curveFitting=1;jiggle=2;entryX=0;entryY=0.5;entryDx=0;entryDy=0;exitX=1;exitY=1;exitDx=0;exitDy=0;" parent="1" source="lg76CUhgI_q97KbNqbia-4" target="YD12FDsrwOs8ktwwAdGp-1" edge="1">
          <mxGeometry relative="1" as="geometry">
            <mxPoint x="202" y="508" as="sourcePoint" />
            <mxPoint x="420" y="690" as="targetPoint" />
            <Array as="points">
              <mxPoint x="195" y="508" />
              <mxPoint x="200" y="508" />
              <mxPoint x="200" y="660" />
            </Array>
          </mxGeometry>
        </mxCell>
        <mxCell id="YD12FDsrwOs8ktwwAdGp-3" style="edgeStyle=orthogonalEdgeStyle;rounded=0;orthogonalLoop=1;jettySize=auto;html=1;strokeWidth=2;fillColor=#d5e8d4;strokeColor=#82b366;sketch=1;curveFitting=1;jiggle=2;exitX=1;exitY=0.5;exitDx=0;exitDy=0;entryX=0.756;entryY=0.963;entryDx=0;entryDy=0;entryPerimeter=0;" parent="1" source="YD12FDsrwOs8ktwwAdGp-1" target="lg76CUhgI_q97KbNqbia-14" edge="1">
          <mxGeometry relative="1" as="geometry">
            <mxPoint x="680" y="660" as="sourcePoint" />
            <mxPoint x="1230" y="570" as="targetPoint" />
            <Array as="points">
              <mxPoint x="1280" y="660" />
              <mxPoint x="1280" y="477" />
            </Array>
          </mxGeometry>
        </mxCell>
      </root>
    </mxGraphModel>
  </diagram>
  <diagram name="Vertical Slice Architecture" id="6KKKKZAk7pw4pZNN8Spq">
    <mxGraphModel dx="2074" dy="836" grid="1" gridSize="10" guides="1" tooltips="1" connect="1" arrows="1" fold="1" page="1" pageScale="1" pageWidth="827" pageHeight="1169" background="#ffffff" math="0" shadow="0">
      <root>
        <mxCell id="0" />
        <mxCell id="1" parent="0" />
        <mxCell id="PWbC6GFVs9YUKvNQ46mf-4" style="edgeStyle=orthogonalEdgeStyle;rounded=0;sketch=1;hachureGap=4;jiggle=2;curveFitting=1;orthogonalLoop=1;jettySize=auto;html=1;fontFamily=Architects Daughter;fontSource=https%3A%2F%2Ffonts.googleapis.com%2Fcss%3Ffamily%3DArchitects%2BDaughter;strokeWidth=3;strokeColor=#000000;" parent="1" source="PWbC6GFVs9YUKvNQ46mf-1" target="PWbC6GFVs9YUKvNQ46mf-2" edge="1">
          <mxGeometry relative="1" as="geometry" />
        </mxCell>
        <mxCell id="PWbC6GFVs9YUKvNQ46mf-1" value="GET" style="rounded=1;whiteSpace=wrap;html=1;labelBackgroundColor=none;fillColor=#FAE5C7;strokeColor=#0F8B8D;fontColor=#143642;sketch=1;curveFitting=1;jiggle=2;fontStyle=1;fontSize=16;" parent="1" vertex="1">
          <mxGeometry x="40" y="140" width="120" height="60" as="geometry" />
        </mxCell>
        <mxCell id="PWbC6GFVs9YUKvNQ46mf-5" style="edgeStyle=orthogonalEdgeStyle;rounded=0;sketch=1;hachureGap=4;jiggle=2;curveFitting=1;orthogonalLoop=1;jettySize=auto;html=1;fontFamily=Architects Daughter;fontSource=https%3A%2F%2Ffonts.googleapis.com%2Fcss%3Ffamily%3DArchitects%2BDaughter;strokeWidth=3;strokeColor=#000000;" parent="1" source="PWbC6GFVs9YUKvNQ46mf-2" target="PWbC6GFVs9YUKvNQ46mf-3" edge="1">
          <mxGeometry relative="1" as="geometry" />
        </mxCell>
        <mxCell id="PWbC6GFVs9YUKvNQ46mf-2" value="EF Core" style="rounded=1;whiteSpace=wrap;html=1;labelBackgroundColor=none;fillColor=#008a00;strokeColor=#005700;fontColor=#0D0D0D;sketch=1;curveFitting=1;jiggle=2;fontStyle=1;fontSize=16;" parent="1" vertex="1">
          <mxGeometry x="300" y="140" width="200" height="60" as="geometry" />
        </mxCell>
        <mxCell id="PWbC6GFVs9YUKvNQ46mf-3" value="Activities" style="rounded=1;whiteSpace=wrap;html=1;labelBackgroundColor=none;fillColor=#0050ef;strokeColor=#001DBC;fontColor=#0D0D0D;sketch=1;curveFitting=1;jiggle=2;fontStyle=1;fontSize=16;" parent="1" vertex="1">
          <mxGeometry x="640" y="140" width="160" height="60" as="geometry" />
        </mxCell>
        <mxCell id="PWbC6GFVs9YUKvNQ46mf-6" style="edgeStyle=orthogonalEdgeStyle;rounded=0;sketch=1;hachureGap=4;jiggle=2;curveFitting=1;orthogonalLoop=1;jettySize=auto;html=1;fontFamily=Architects Daughter;fontSource=https%3A%2F%2Ffonts.googleapis.com%2Fcss%3Ffamily%3DArchitects%2BDaughter;strokeWidth=3;strokeColor=#000000;" parent="1" source="PWbC6GFVs9YUKvNQ46mf-7" target="PWbC6GFVs9YUKvNQ46mf-9" edge="1">
          <mxGeometry relative="1" as="geometry" />
        </mxCell>
        <mxCell id="PWbC6GFVs9YUKvNQ46mf-7" value="GET By ID" style="rounded=1;whiteSpace=wrap;html=1;labelBackgroundColor=none;fillColor=#FAE5C7;strokeColor=#0F8B8D;fontColor=#143642;sketch=1;curveFitting=1;jiggle=2;fontStyle=1;fontSize=16;" parent="1" vertex="1">
          <mxGeometry x="40" y="260" width="120" height="60" as="geometry" />
        </mxCell>
        <mxCell id="PWbC6GFVs9YUKvNQ46mf-8" style="edgeStyle=orthogonalEdgeStyle;rounded=0;sketch=1;hachureGap=4;jiggle=2;curveFitting=1;orthogonalLoop=1;jettySize=auto;html=1;fontFamily=Architects Daughter;fontSource=https%3A%2F%2Ffonts.googleapis.com%2Fcss%3Ffamily%3DArchitects%2BDaughter;strokeWidth=3;strokeColor=#000000;" parent="1" source="PWbC6GFVs9YUKvNQ46mf-9" target="PWbC6GFVs9YUKvNQ46mf-10" edge="1">
          <mxGeometry relative="1" as="geometry" />
        </mxCell>
        <mxCell id="PWbC6GFVs9YUKvNQ46mf-9" value="EF Core" style="rounded=1;whiteSpace=wrap;html=1;labelBackgroundColor=none;fillColor=#008a00;strokeColor=#005700;fontColor=#0D0D0D;sketch=1;curveFitting=1;jiggle=2;fontStyle=1;fontSize=16;" parent="1" vertex="1">
          <mxGeometry x="300" y="260" width="200" height="60" as="geometry" />
        </mxCell>
        <mxCell id="PWbC6GFVs9YUKvNQ46mf-10" value="Activities" style="rounded=1;whiteSpace=wrap;html=1;labelBackgroundColor=none;fillColor=#0050ef;strokeColor=#001DBC;fontColor=#0D0D0D;sketch=1;curveFitting=1;jiggle=2;fontStyle=1;fontSize=16;" parent="1" vertex="1">
          <mxGeometry x="640" y="260" width="160" height="60" as="geometry" />
        </mxCell>
        <mxCell id="PWbC6GFVs9YUKvNQ46mf-11" style="edgeStyle=orthogonalEdgeStyle;rounded=0;sketch=1;hachureGap=4;jiggle=2;curveFitting=1;orthogonalLoop=1;jettySize=auto;html=1;fontFamily=Architects Daughter;fontSource=https%3A%2F%2Ffonts.googleapis.com%2Fcss%3Ffamily%3DArchitects%2BDaughter;strokeWidth=3;strokeColor=#000000;" parent="1" source="PWbC6GFVs9YUKvNQ46mf-12" target="PWbC6GFVs9YUKvNQ46mf-14" edge="1">
          <mxGeometry relative="1" as="geometry" />
        </mxCell>
        <mxCell id="PWbC6GFVs9YUKvNQ46mf-12" value="POST" style="rounded=1;whiteSpace=wrap;html=1;labelBackgroundColor=none;fillColor=#FAE5C7;strokeColor=#0F8B8D;fontColor=#143642;sketch=1;curveFitting=1;jiggle=2;fontStyle=1;fontSize=16;" parent="1" vertex="1">
          <mxGeometry x="40" y="460" width="120" height="60" as="geometry" />
        </mxCell>
        <mxCell id="PWbC6GFVs9YUKvNQ46mf-13" style="edgeStyle=orthogonalEdgeStyle;rounded=0;sketch=1;hachureGap=4;jiggle=2;curveFitting=1;orthogonalLoop=1;jettySize=auto;html=1;fontFamily=Architects Daughter;fontSource=https%3A%2F%2Ffonts.googleapis.com%2Fcss%3Ffamily%3DArchitects%2BDaughter;strokeWidth=3;strokeColor=#000000;" parent="1" source="PWbC6GFVs9YUKvNQ46mf-14" target="PWbC6GFVs9YUKvNQ46mf-15" edge="1">
          <mxGeometry relative="1" as="geometry" />
        </mxCell>
        <mxCell id="PWbC6GFVs9YUKvNQ46mf-14" value="EF Core" style="rounded=1;whiteSpace=wrap;html=1;labelBackgroundColor=none;fillColor=#008a00;strokeColor=#005700;fontColor=#0D0D0D;sketch=1;curveFitting=1;jiggle=2;fontStyle=1;fontSize=16;" parent="1" vertex="1">
          <mxGeometry x="300" y="460" width="200" height="60" as="geometry" />
        </mxCell>
        <mxCell id="PWbC6GFVs9YUKvNQ46mf-15" value="Activity ID" style="rounded=1;whiteSpace=wrap;html=1;labelBackgroundColor=none;fillColor=#0050ef;strokeColor=#001DBC;fontColor=#0D0D0D;sketch=1;curveFitting=1;jiggle=2;fontStyle=1;fontSize=16;" parent="1" vertex="1">
          <mxGeometry x="640" y="460" width="160" height="60" as="geometry" />
        </mxCell>
        <mxCell id="PWbC6GFVs9YUKvNQ46mf-16" style="edgeStyle=orthogonalEdgeStyle;rounded=0;sketch=1;hachureGap=4;jiggle=2;curveFitting=1;orthogonalLoop=1;jettySize=auto;html=1;fontFamily=Architects Daughter;fontSource=https%3A%2F%2Ffonts.googleapis.com%2Fcss%3Ffamily%3DArchitects%2BDaughter;strokeWidth=3;strokeColor=#000000;" parent="1" source="PWbC6GFVs9YUKvNQ46mf-17" target="PWbC6GFVs9YUKvNQ46mf-19" edge="1">
          <mxGeometry relative="1" as="geometry" />
        </mxCell>
        <mxCell id="PWbC6GFVs9YUKvNQ46mf-17" value="PUT" style="rounded=1;whiteSpace=wrap;html=1;labelBackgroundColor=none;fillColor=#FAE5C7;strokeColor=#0F8B8D;fontColor=#143642;sketch=1;curveFitting=1;jiggle=2;fontStyle=1;fontSize=16;" parent="1" vertex="1">
          <mxGeometry x="40" y="580" width="120" height="60" as="geometry" />
        </mxCell>
        <mxCell id="PWbC6GFVs9YUKvNQ46mf-18" style="edgeStyle=orthogonalEdgeStyle;rounded=0;sketch=1;hachureGap=4;jiggle=2;curveFitting=1;orthogonalLoop=1;jettySize=auto;html=1;fontFamily=Architects Daughter;fontSource=https%3A%2F%2Ffonts.googleapis.com%2Fcss%3Ffamily%3DArchitects%2BDaughter;strokeWidth=3;strokeColor=#000000;" parent="1" source="PWbC6GFVs9YUKvNQ46mf-19" target="PWbC6GFVs9YUKvNQ46mf-20" edge="1">
          <mxGeometry relative="1" as="geometry" />
        </mxCell>
        <mxCell id="PWbC6GFVs9YUKvNQ46mf-19" value="EF Core" style="rounded=1;whiteSpace=wrap;html=1;labelBackgroundColor=none;fillColor=#008a00;strokeColor=#005700;fontColor=#0D0D0D;sketch=1;curveFitting=1;jiggle=2;fontStyle=1;fontSize=16;" parent="1" vertex="1">
          <mxGeometry x="300" y="580" width="200" height="60" as="geometry" />
        </mxCell>
        <mxCell id="PWbC6GFVs9YUKvNQ46mf-20" value="Activity ID" style="rounded=1;whiteSpace=wrap;html=1;labelBackgroundColor=none;fillColor=#0050ef;strokeColor=#001DBC;fontColor=#0D0D0D;sketch=1;curveFitting=1;jiggle=2;fontStyle=1;fontSize=16;" parent="1" vertex="1">
          <mxGeometry x="640" y="580" width="160" height="60" as="geometry" />
        </mxCell>
        <mxCell id="PWbC6GFVs9YUKvNQ46mf-21" style="edgeStyle=orthogonalEdgeStyle;rounded=0;sketch=1;hachureGap=4;jiggle=2;curveFitting=1;orthogonalLoop=1;jettySize=auto;html=1;fontFamily=Architects Daughter;fontSource=https%3A%2F%2Ffonts.googleapis.com%2Fcss%3Ffamily%3DArchitects%2BDaughter;strokeWidth=3;strokeColor=#000000;" parent="1" source="PWbC6GFVs9YUKvNQ46mf-22" target="PWbC6GFVs9YUKvNQ46mf-24" edge="1">
          <mxGeometry relative="1" as="geometry" />
        </mxCell>
        <mxCell id="PWbC6GFVs9YUKvNQ46mf-22" value="DELETE" style="rounded=1;whiteSpace=wrap;html=1;labelBackgroundColor=none;fillColor=#FAE5C7;strokeColor=#0F8B8D;fontColor=#143642;sketch=1;curveFitting=1;jiggle=2;fontStyle=1;fontSize=16;" parent="1" vertex="1">
          <mxGeometry x="40" y="700" width="120" height="60" as="geometry" />
        </mxCell>
        <mxCell id="PWbC6GFVs9YUKvNQ46mf-23" style="edgeStyle=orthogonalEdgeStyle;rounded=0;sketch=1;hachureGap=4;jiggle=2;curveFitting=1;orthogonalLoop=1;jettySize=auto;html=1;fontFamily=Architects Daughter;fontSource=https%3A%2F%2Ffonts.googleapis.com%2Fcss%3Ffamily%3DArchitects%2BDaughter;strokeWidth=3;strokeColor=#000000;" parent="1" source="PWbC6GFVs9YUKvNQ46mf-24" target="PWbC6GFVs9YUKvNQ46mf-25" edge="1">
          <mxGeometry relative="1" as="geometry" />
        </mxCell>
        <mxCell id="PWbC6GFVs9YUKvNQ46mf-24" value="EF Core" style="rounded=1;whiteSpace=wrap;html=1;labelBackgroundColor=none;fillColor=#008a00;strokeColor=#005700;fontColor=#0D0D0D;sketch=1;curveFitting=1;jiggle=2;fontStyle=1;fontSize=16;" parent="1" vertex="1">
          <mxGeometry x="300" y="700" width="200" height="60" as="geometry" />
        </mxCell>
        <mxCell id="PWbC6GFVs9YUKvNQ46mf-25" value="No content" style="rounded=1;whiteSpace=wrap;html=1;labelBackgroundColor=none;fillColor=#0050ef;strokeColor=#001DBC;fontColor=#0D0D0D;sketch=1;curveFitting=1;jiggle=2;fontStyle=1;fontSize=16;" parent="1" vertex="1">
          <mxGeometry x="640" y="700" width="160" height="60" as="geometry" />
        </mxCell>
        <mxCell id="YeCqpPwFeMRfx5tpiRbL-1" value="UI/API" style="rounded=1;whiteSpace=wrap;html=1;labelBackgroundColor=none;fillColor=#dae8fc;strokeColor=#6c8ebf;sketch=1;curveFitting=1;jiggle=2;fontStyle=1;fontSize=16;" parent="1" vertex="1">
          <mxGeometry x="40" y="900" width="760" height="60" as="geometry" />
        </mxCell>
        <mxCell id="YeCqpPwFeMRfx5tpiRbL-2" value="Domain Objects" style="rounded=1;whiteSpace=wrap;html=1;labelBackgroundColor=none;fillColor=#d5e8d4;strokeColor=#82b366;sketch=1;curveFitting=1;jiggle=2;fontStyle=1;fontSize=16;gradientColor=none;" parent="1" vertex="1">
          <mxGeometry x="40" y="1020" width="760" height="60" as="geometry" />
        </mxCell>
        <mxCell id="YeCqpPwFeMRfx5tpiRbL-3" value="Repository" style="rounded=1;whiteSpace=wrap;html=1;labelBackgroundColor=none;fillColor=#ffe6cc;strokeColor=#d79b00;sketch=1;curveFitting=1;jiggle=2;fontStyle=1;fontSize=16;" parent="1" vertex="1">
          <mxGeometry x="40" y="1140" width="760" height="60" as="geometry" />
        </mxCell>
        <mxCell id="YeCqpPwFeMRfx5tpiRbL-4" value="Database" style="rounded=1;whiteSpace=wrap;html=1;labelBackgroundColor=none;fillColor=#f8cecc;strokeColor=#b85450;sketch=1;curveFitting=1;jiggle=2;fontStyle=1;fontSize=16;" parent="1" vertex="1">
          <mxGeometry x="40" y="1260" width="760" height="60" as="geometry" />
        </mxCell>
        <mxCell id="YeCqpPwFeMRfx5tpiRbL-6" value="POST" style="rounded=1;whiteSpace=wrap;html=1;labelBackgroundColor=none;fillColor=#dae8fc;strokeColor=#6c8ebf;sketch=1;curveFitting=1;jiggle=2;fontStyle=1;fontSize=16;direction=south;verticalAlign=bottom;labelPosition=center;verticalLabelPosition=top;align=center;textDirection=ltr;" parent="1" vertex="1">
          <mxGeometry x="50" y="850" width="40" height="540" as="geometry" />
        </mxCell>
        <mxCell id="YeCqpPwFeMRfx5tpiRbL-7" value="GET/GET BY ID" style="rounded=1;whiteSpace=wrap;html=1;labelBackgroundColor=none;fillColor=#dae8fc;strokeColor=#6c8ebf;sketch=1;curveFitting=1;jiggle=2;fontStyle=1;fontSize=16;direction=south;verticalAlign=top;labelPosition=center;verticalLabelPosition=bottom;align=center;textDirection=ltr;" parent="1" vertex="1">
          <mxGeometry x="110" y="850" width="40" height="540" as="geometry" />
        </mxCell>
        <mxCell id="YeCqpPwFeMRfx5tpiRbL-12" value="PUT" style="rounded=1;whiteSpace=wrap;html=1;labelBackgroundColor=none;fillColor=#dae8fc;strokeColor=#6c8ebf;sketch=1;curveFitting=1;jiggle=2;fontStyle=1;fontSize=16;direction=south;verticalAlign=bottom;labelPosition=center;verticalLabelPosition=top;align=center;textDirection=ltr;" parent="1" vertex="1">
          <mxGeometry x="176" y="850" width="40" height="540" as="geometry" />
        </mxCell>
        <mxCell id="YeCqpPwFeMRfx5tpiRbL-17" value="Delete" style="rounded=1;whiteSpace=wrap;html=1;labelBackgroundColor=none;fillColor=#dae8fc;strokeColor=#6c8ebf;sketch=1;curveFitting=1;jiggle=2;fontStyle=1;fontSize=16;direction=south;verticalAlign=top;labelPosition=center;verticalLabelPosition=bottom;align=center;textDirection=ltr;" parent="1" vertex="1">
          <mxGeometry x="236" y="850" width="40" height="540" as="geometry" />
        </mxCell>
        <mxCell id="eqY0p6rZHaUiy9gjnl2C-1" style="edgeStyle=orthogonalEdgeStyle;rounded=0;sketch=1;hachureGap=4;jiggle=2;curveFitting=1;orthogonalLoop=1;jettySize=auto;html=1;fontFamily=Architects Daughter;fontSource=https%3A%2F%2Ffonts.googleapis.com%2Fcss%3Ffamily%3DArchitects%2BDaughter;strokeWidth=3;strokeColor=#000000;" parent="1" source="eqY0p6rZHaUiy9gjnl2C-2" target="eqY0p6rZHaUiy9gjnl2C-4" edge="1">
          <mxGeometry relative="1" as="geometry" />
        </mxCell>
        <mxCell id="eqY0p6rZHaUiy9gjnl2C-2" value="Filter" style="rounded=1;whiteSpace=wrap;html=1;labelBackgroundColor=none;fillColor=#FAE5C7;strokeColor=#0F8B8D;fontColor=#143642;sketch=1;curveFitting=1;jiggle=2;fontStyle=1;fontSize=16;" parent="1" vertex="1">
          <mxGeometry x="40" y="350" width="120" height="60" as="geometry" />
        </mxCell>
        <mxCell id="eqY0p6rZHaUiy9gjnl2C-3" style="edgeStyle=orthogonalEdgeStyle;rounded=0;sketch=1;hachureGap=4;jiggle=2;curveFitting=1;orthogonalLoop=1;jettySize=auto;html=1;fontFamily=Architects Daughter;fontSource=https%3A%2F%2Ffonts.googleapis.com%2Fcss%3Ffamily%3DArchitects%2BDaughter;strokeWidth=3;strokeColor=#000000;" parent="1" source="eqY0p6rZHaUiy9gjnl2C-4" target="eqY0p6rZHaUiy9gjnl2C-5" edge="1">
          <mxGeometry relative="1" as="geometry" />
        </mxCell>
        <mxCell id="eqY0p6rZHaUiy9gjnl2C-4" value="EF Core" style="rounded=1;whiteSpace=wrap;html=1;labelBackgroundColor=none;fillColor=#008a00;strokeColor=#005700;fontColor=#0D0D0D;sketch=1;curveFitting=1;jiggle=2;fontStyle=1;fontSize=16;" parent="1" vertex="1">
          <mxGeometry x="300" y="350" width="200" height="60" as="geometry" />
        </mxCell>
        <mxCell id="eqY0p6rZHaUiy9gjnl2C-5" value="Activities" style="rounded=1;whiteSpace=wrap;html=1;labelBackgroundColor=none;fillColor=#0050ef;strokeColor=#001DBC;fontColor=#0D0D0D;sketch=1;curveFitting=1;jiggle=2;fontStyle=1;fontSize=16;" parent="1" vertex="1">
          <mxGeometry x="640" y="350" width="160" height="60" as="geometry" />
        </mxCell>
      </root>
    </mxGraphModel>
  </diagram>
  <diagram id="qOZD_Y3hr8YFyraNIUHw" name="Architecture">
    <mxGraphModel dx="1434" dy="836" grid="1" gridSize="10" guides="1" tooltips="1" connect="1" arrows="1" fold="1" page="1" pageScale="1" pageWidth="827" pageHeight="1169" math="0" shadow="0">
      <root>
        <mxCell id="0" />
        <mxCell id="1" parent="0" />
        <mxCell id="sd-RvYlaweVp6N_bchjU-1" style="edgeStyle=orthogonalEdgeStyle;rounded=0;orthogonalLoop=1;jettySize=auto;html=1;strokeWidth=2;fillColor=#f5f5f5;strokeColor=#666666;" parent="1" source="sd-RvYlaweVp6N_bchjU-3" target="sd-RvYlaweVp6N_bchjU-13" edge="1">
          <mxGeometry relative="1" as="geometry" />
        </mxCell>
        <mxCell id="sd-RvYlaweVp6N_bchjU-3" value="API.NET Core Web APP" style="swimlane;whiteSpace=wrap;html=1;sketch=1;curveFitting=1;jiggle=2;fillColor=#dae8fc;strokeColor=#6c8ebf;fontStyle=0" parent="1" vertex="1">
          <mxGeometry x="40" y="80" width="1050" height="890" as="geometry" />
        </mxCell>
        <mxCell id="SxfIzY9s2vj6xXkSahZ0-1" style="edgeStyle=orthogonalEdgeStyle;rounded=0;orthogonalLoop=1;jettySize=auto;html=1;fillColor=#dae8fc;strokeColor=#6c8ebf;strokeWidth=3;" edge="1" parent="sd-RvYlaweVp6N_bchjU-3" source="sd-RvYlaweVp6N_bchjU-8">
          <mxGeometry relative="1" as="geometry">
            <mxPoint x="640" y="70" as="targetPoint" />
          </mxGeometry>
        </mxCell>
        <mxCell id="sd-RvYlaweVp6N_bchjU-8" value="API.Gateway" style="rounded=1;whiteSpace=wrap;html=1;sketch=1;curveFitting=1;jiggle=2;fillColor=#1ba1e2;fontColor=#000000;strokeColor=#006EAF;fontSize=16;fontStyle=1" parent="sd-RvYlaweVp6N_bchjU-3" vertex="1">
          <mxGeometry x="10" y="40" width="160" height="60" as="geometry" />
        </mxCell>
        <mxCell id="PIq4N967UhMmvGUoV6qf-31" value="&lt;span style=&quot;font-size: 16px; font-weight: 700;&quot;&gt;API.External&lt;/span&gt;" style="swimlane;whiteSpace=wrap;html=1;sketch=1;curveFitting=1;jiggle=2;fillColor=#f8cecc;strokeColor=#b85450;fontStyle=0" parent="sd-RvYlaweVp6N_bchjU-3" vertex="1">
          <mxGeometry x="40" y="380" width="320" height="460" as="geometry" />
        </mxCell>
        <mxCell id="PIq4N967UhMmvGUoV6qf-35" value="API.External.Auth" style="rounded=1;whiteSpace=wrap;html=1;sketch=1;curveFitting=1;jiggle=2;fillColor=#e3c800;fontColor=#000000;strokeColor=#B09500;fontSize=16;fontStyle=1" parent="PIq4N967UhMmvGUoV6qf-31" vertex="1">
          <mxGeometry x="40" y="160" width="180" height="60" as="geometry" />
        </mxCell>
        <mxCell id="PIq4N967UhMmvGUoV6qf-37" value="API.External.Person" style="rounded=1;whiteSpace=wrap;html=1;sketch=1;curveFitting=1;jiggle=2;fillColor=#e3c800;fontColor=#000000;strokeColor=#B09500;fontSize=16;fontStyle=1" parent="PIq4N967UhMmvGUoV6qf-31" vertex="1">
          <mxGeometry x="40" y="40" width="180" height="60" as="geometry" />
        </mxCell>
        <mxCell id="PIq4N967UhMmvGUoV6qf-34" value="API.External.Email" style="rounded=1;whiteSpace=wrap;html=1;sketch=1;curveFitting=1;jiggle=2;fillColor=#e3c800;fontColor=#000000;strokeColor=#B09500;fontSize=16;fontStyle=1" parent="PIq4N967UhMmvGUoV6qf-31" vertex="1">
          <mxGeometry x="40" y="280" width="190" height="60" as="geometry" />
        </mxCell>
        <mxCell id="PIq4N967UhMmvGUoV6qf-36" value="API.External.MKT" style="rounded=1;whiteSpace=wrap;html=1;sketch=1;curveFitting=1;jiggle=2;fillColor=#e3c800;fontColor=#000000;strokeColor=#B09500;fontSize=16;fontStyle=1" parent="PIq4N967UhMmvGUoV6qf-31" vertex="1">
          <mxGeometry x="40" y="380" width="190" height="60" as="geometry" />
        </mxCell>
        <mxCell id="PIq4N967UhMmvGUoV6qf-59" style="edgeStyle=orthogonalEdgeStyle;rounded=0;orthogonalLoop=1;jettySize=auto;html=1;fillColor=#60a917;strokeColor=#2D7600;strokeWidth=3;" parent="sd-RvYlaweVp6N_bchjU-3" source="PIq4N967UhMmvGUoV6qf-38" edge="1">
          <mxGeometry relative="1" as="geometry">
            <mxPoint x="1350" y="170" as="targetPoint" />
          </mxGeometry>
        </mxCell>
        <mxCell id="PIq4N967UhMmvGUoV6qf-38" value="Main Project" style="swimlane;whiteSpace=wrap;html=1;sketch=1;curveFitting=1;jiggle=2;fillColor=#d5e8d4;strokeColor=#82b366;fontStyle=0" parent="sd-RvYlaweVp6N_bchjU-3" vertex="1">
          <mxGeometry x="640" y="40" width="340" height="650" as="geometry" />
        </mxCell>
        <mxCell id="sd-RvYlaweVp6N_bchjU-5" value="API.Exemple.Core.08" style="rounded=1;whiteSpace=wrap;html=1;sketch=1;curveFitting=1;jiggle=2;fillColor=#fff2cc;strokeColor=#d6b656;fontSize=16;fontStyle=1" parent="PIq4N967UhMmvGUoV6qf-38" vertex="1">
          <mxGeometry x="40" y="51" width="250" height="60" as="geometry" />
        </mxCell>
        <mxCell id="O3aAUaF5_Tzs2dyNxXPh-3" value="API.HR.Core" style="rounded=1;whiteSpace=wrap;html=1;sketch=1;curveFitting=1;jiggle=2;fillColor=#e3c800;fontColor=#000000;strokeColor=#B09500;fontSize=16;fontStyle=1" parent="PIq4N967UhMmvGUoV6qf-38" vertex="1">
          <mxGeometry x="40" y="295" width="250" height="60" as="geometry" />
        </mxCell>
        <mxCell id="O3aAUaF5_Tzs2dyNxXPh-5" value="API.Freelancer.Core" style="rounded=1;whiteSpace=wrap;html=1;sketch=1;curveFitting=1;jiggle=2;fillColor=#e3c800;fontColor=#000000;strokeColor=#B09500;fontSize=16;fontStyle=1" parent="PIq4N967UhMmvGUoV6qf-38" vertex="1">
          <mxGeometry x="40" y="380" width="250" height="60" as="geometry" />
        </mxCell>
        <mxCell id="O3aAUaF5_Tzs2dyNxXPh-7" value="API.InventoryControl.Core" style="rounded=1;whiteSpace=wrap;html=1;sketch=1;curveFitting=1;jiggle=2;fillColor=#e3c800;fontColor=#000000;strokeColor=#B09500;fontSize=16;fontStyle=1" parent="PIq4N967UhMmvGUoV6qf-38" vertex="1">
          <mxGeometry x="40" y="550" width="250" height="60" as="geometry" />
        </mxCell>
        <mxCell id="O3aAUaF5_Tzs2dyNxXPh-9" value="API.Clinic.Core" style="rounded=1;whiteSpace=wrap;html=1;sketch=1;curveFitting=1;jiggle=2;fillColor=#e3c800;fontColor=#000000;strokeColor=#B09500;fontSize=16;fontStyle=1" parent="PIq4N967UhMmvGUoV6qf-38" vertex="1">
          <mxGeometry x="40" y="470" width="250" height="60" as="geometry" />
        </mxCell>
        <mxCell id="PIq4N967UhMmvGUoV6qf-43" style="edgeStyle=orthogonalEdgeStyle;rounded=0;orthogonalLoop=1;jettySize=auto;html=1;entryX=0.141;entryY=0.007;entryDx=0;entryDy=0;entryPerimeter=0;fillColor=#dae8fc;strokeColor=#6c8ebf;strokeWidth=3;" parent="sd-RvYlaweVp6N_bchjU-3" source="sd-RvYlaweVp6N_bchjU-8" target="PIq4N967UhMmvGUoV6qf-31" edge="1">
          <mxGeometry relative="1" as="geometry" />
        </mxCell>
        <mxCell id="sd-RvYlaweVp6N_bchjU-13" value="Application Core Project" style="swimlane;whiteSpace=wrap;html=1;sketch=1;curveFitting=1;jiggle=2;fillColor=#f8cecc;strokeColor=#b85450;fontStyle=0" parent="1" vertex="1">
          <mxGeometry x="40" y="1140" width="630" height="460" as="geometry" />
        </mxCell>
        <mxCell id="sd-RvYlaweVp6N_bchjU-14" value="Interfaces" style="rounded=1;whiteSpace=wrap;html=1;sketch=1;curveFitting=1;jiggle=2;fillColor=#008a00;fontColor=#000000;strokeColor=#005700;fontSize=16;fontStyle=1" parent="sd-RvYlaweVp6N_bchjU-13" vertex="1">
          <mxGeometry x="10" y="80" width="120" height="60" as="geometry" />
        </mxCell>
        <mxCell id="sd-RvYlaweVp6N_bchjU-15" value="Domain Events" style="rounded=1;whiteSpace=wrap;html=1;sketch=1;curveFitting=1;jiggle=2;fillColor=#008a00;fontColor=#000000;strokeColor=#005700;fontSize=16;fontStyle=1" parent="sd-RvYlaweVp6N_bchjU-13" vertex="1">
          <mxGeometry x="260" y="80" width="124" height="60" as="geometry" />
        </mxCell>
        <mxCell id="sd-RvYlaweVp6N_bchjU-16" value="Entities" style="rounded=1;whiteSpace=wrap;html=1;sketch=1;curveFitting=1;jiggle=2;fillColor=#008a00;fontColor=#000000;strokeColor=#005700;fontSize=16;fontStyle=1" parent="1" vertex="1">
          <mxGeometry x="50" y="1360" width="120" height="60" as="geometry" />
        </mxCell>
        <mxCell id="sd-RvYlaweVp6N_bchjU-17" value="Busines Services" style="rounded=1;whiteSpace=wrap;html=1;sketch=1;curveFitting=1;jiggle=2;fillColor=#008a00;fontColor=#000000;strokeColor=#005700;fontSize=16;fontStyle=1" parent="1" vertex="1">
          <mxGeometry x="50" y="1500" width="120" height="60" as="geometry" />
        </mxCell>
        <mxCell id="sd-RvYlaweVp6N_bchjU-18" value="Application Exceptons" style="rounded=1;whiteSpace=wrap;html=1;sketch=1;curveFitting=1;jiggle=2;fillColor=#008a00;fontColor=#000000;strokeColor=#005700;fontSize=16;fontStyle=1" parent="1" vertex="1">
          <mxGeometry x="300" y="1360" width="120" height="60" as="geometry" />
        </mxCell>
        <mxCell id="sd-RvYlaweVp6N_bchjU-19" value="Value Objects" style="rounded=1;whiteSpace=wrap;html=1;sketch=1;curveFitting=1;jiggle=2;fillColor=#008a00;fontColor=#000000;strokeColor=#005700;fontSize=16;fontStyle=1" parent="1" vertex="1">
          <mxGeometry x="300" y="1500" width="120" height="60" as="geometry" />
        </mxCell>
        <mxCell id="sd-RvYlaweVp6N_bchjU-20" value="Aggrecates" style="rounded=1;whiteSpace=wrap;html=1;sketch=1;curveFitting=1;jiggle=2;fillColor=#008a00;fontColor=#000000;strokeColor=#005700;fontSize=16;fontStyle=1" parent="1" vertex="1">
          <mxGeometry x="525" y="1220" width="124" height="60" as="geometry" />
        </mxCell>
        <mxCell id="sd-RvYlaweVp6N_bchjU-21" value="Specifications" style="rounded=1;whiteSpace=wrap;html=1;sketch=1;curveFitting=1;jiggle=2;fillColor=#008a00;fontColor=#000000;strokeColor=#005700;fontSize=16;fontStyle=1" parent="1" vertex="1">
          <mxGeometry x="525" y="1360" width="120" height="60" as="geometry" />
        </mxCell>
        <mxCell id="sd-RvYlaweVp6N_bchjU-22" value="API.NET Core Web APP" style="swimlane;whiteSpace=wrap;html=1;sketch=1;curveFitting=1;jiggle=2;fillColor=#d5e8d4;strokeColor=#82b366;fontStyle=0" parent="1" vertex="1">
          <mxGeometry x="1390" y="80" width="630" height="410" as="geometry" />
        </mxCell>
        <mxCell id="sd-RvYlaweVp6N_bchjU-23" value="Redis" style="rounded=1;whiteSpace=wrap;html=1;sketch=1;curveFitting=1;jiggle=2;fillColor=#008a00;fontColor=#000000;strokeColor=#005700;fontSize=16;fontStyle=1" parent="sd-RvYlaweVp6N_bchjU-22" vertex="1">
          <mxGeometry x="10" y="90" width="120" height="60" as="geometry" />
        </mxCell>
        <mxCell id="sd-RvYlaweVp6N_bchjU-24" value="MongoDb" style="rounded=1;whiteSpace=wrap;html=1;sketch=1;curveFitting=1;jiggle=2;fillColor=#008a00;fontColor=#000000;strokeColor=#005700;fontSize=16;fontStyle=1" parent="sd-RvYlaweVp6N_bchjU-22" vertex="1">
          <mxGeometry x="10" y="301" width="120" height="60" as="geometry" />
        </mxCell>
        <mxCell id="sd-RvYlaweVp6N_bchjU-25" style="edgeStyle=orthogonalEdgeStyle;rounded=0;orthogonalLoop=1;jettySize=auto;html=1;fillColor=#d5e8d4;strokeColor=#82b366;strokeWidth=2;" parent="1" source="sd-RvYlaweVp6N_bchjU-26" target="sd-RvYlaweVp6N_bchjU-35" edge="1">
          <mxGeometry relative="1" as="geometry">
            <Array as="points">
              <mxPoint x="1550" y="298" />
              <mxPoint x="1550" y="524" />
              <mxPoint x="1440" y="524" />
            </Array>
          </mxGeometry>
        </mxCell>
        <mxCell id="sd-RvYlaweVp6N_bchjU-26" value="SQL Database" style="rounded=1;whiteSpace=wrap;html=1;sketch=1;curveFitting=1;jiggle=2;fillColor=#008a00;fontColor=#000000;strokeColor=#005700;fontSize=16;fontStyle=1" parent="1" vertex="1">
          <mxGeometry x="1400" y="268" width="120" height="60" as="geometry" />
        </mxCell>
        <mxCell id="sd-RvYlaweVp6N_bchjU-27" value="RabbetMQ" style="rounded=1;whiteSpace=wrap;html=1;sketch=1;curveFitting=1;jiggle=2;fillColor=#008a00;fontColor=#000000;strokeColor=#005700;fontSize=16;fontStyle=1" parent="1" vertex="1">
          <mxGeometry x="1630" y="381" width="120" height="60" as="geometry" />
        </mxCell>
        <mxCell id="sd-RvYlaweVp6N_bchjU-28" value="Kafka" style="rounded=1;whiteSpace=wrap;html=1;sketch=1;curveFitting=1;jiggle=2;fillColor=#008a00;fontColor=#000000;strokeColor=#005700;fontSize=16;fontStyle=1" parent="1" vertex="1">
          <mxGeometry x="1630" y="261" width="120" height="60" as="geometry" />
        </mxCell>
        <mxCell id="sd-RvYlaweVp6N_bchjU-29" value="Azure Functions" style="rounded=1;whiteSpace=wrap;html=1;sketch=1;curveFitting=1;jiggle=2;fillColor=#008a00;fontColor=#000000;strokeColor=#005700;fontSize=16;fontStyle=1" parent="1" vertex="1">
          <mxGeometry x="1630" y="171" width="120" height="60" as="geometry" />
        </mxCell>
        <mxCell id="sd-RvYlaweVp6N_bchjU-30" value="Other Web API clients" style="rounded=1;whiteSpace=wrap;html=1;sketch=1;curveFitting=1;jiggle=2;fillColor=#008a00;fontColor=#000000;strokeColor=#005700;fontSize=16;fontStyle=1" parent="1" vertex="1">
          <mxGeometry x="1870" y="381" width="120" height="60" as="geometry" />
        </mxCell>
        <mxCell id="sd-RvYlaweVp6N_bchjU-31" style="edgeStyle=orthogonalEdgeStyle;rounded=0;orthogonalLoop=1;jettySize=auto;html=1;fillColor=#d5e8d4;strokeColor=#82b366;strokeWidth=2;" parent="1" source="sd-RvYlaweVp6N_bchjU-32" target="sd-RvYlaweVp6N_bchjU-38" edge="1">
          <mxGeometry relative="1" as="geometry">
            <Array as="points">
              <mxPoint x="1840" y="291" />
              <mxPoint x="1840" y="471" />
              <mxPoint x="1860" y="471" />
            </Array>
          </mxGeometry>
        </mxCell>
        <mxCell id="sd-RvYlaweVp6N_bchjU-32" value="Email Service (Sendgrid, etc)" style="rounded=1;whiteSpace=wrap;html=1;sketch=1;curveFitting=1;jiggle=2;fillColor=#008a00;fontColor=#000000;strokeColor=#005700;fontSize=16;fontStyle=1" parent="1" vertex="1">
          <mxGeometry x="1870" y="261" width="120" height="60" as="geometry" />
        </mxCell>
        <mxCell id="sd-RvYlaweVp6N_bchjU-33" value="SMS Service (Twilio, ETC)" style="rounded=1;whiteSpace=wrap;html=1;sketch=1;curveFitting=1;jiggle=2;fillColor=#008a00;fontColor=#000000;strokeColor=#005700;fontSize=16;fontStyle=1" parent="1" vertex="1">
          <mxGeometry x="1870" y="171" width="120" height="60" as="geometry" />
        </mxCell>
        <mxCell id="sd-RvYlaweVp6N_bchjU-34" value="Data Sources" style="swimlane;whiteSpace=wrap;html=1;sketch=1;curveFitting=1;jiggle=2;fillColor=#f5f5f5;strokeColor=#666666;fontStyle=0;fontColor=#333333;" parent="1" vertex="1">
          <mxGeometry x="1390" y="620" width="300" height="220" as="geometry" />
        </mxCell>
        <mxCell id="sd-RvYlaweVp6N_bchjU-35" value="SQL" style="shape=cylinder3;whiteSpace=wrap;html=1;boundedLbl=1;backgroundOutline=1;size=15;fillColor=#f5f5f5;fontColor=#333333;strokeColor=#666666;sketch=1;curveFitting=1;jiggle=2;" parent="sd-RvYlaweVp6N_bchjU-34" vertex="1">
          <mxGeometry x="20" y="100" width="60" height="80" as="geometry" />
        </mxCell>
        <mxCell id="sd-RvYlaweVp6N_bchjU-36" value="Redis" style="shape=cylinder3;whiteSpace=wrap;html=1;boundedLbl=1;backgroundOutline=1;size=15;fillColor=#f5f5f5;fontColor=#333333;strokeColor=#666666;sketch=1;curveFitting=1;jiggle=2;" parent="1" vertex="1">
          <mxGeometry x="1510" y="720" width="60" height="80" as="geometry" />
        </mxCell>
        <mxCell id="sd-RvYlaweVp6N_bchjU-37" value="MongoDb" style="shape=cylinder3;whiteSpace=wrap;html=1;boundedLbl=1;backgroundOutline=1;size=15;fillColor=#f5f5f5;fontColor=#333333;strokeColor=#666666;sketch=1;curveFitting=1;jiggle=2;" parent="1" vertex="1">
          <mxGeometry x="1610" y="720" width="60" height="80" as="geometry" />
        </mxCell>
        <mxCell id="sd-RvYlaweVp6N_bchjU-38" value="Third Party Services" style="swimlane;whiteSpace=wrap;html=1;sketch=1;curveFitting=1;jiggle=2;fillColor=#f5f5f5;strokeColor=#666666;fontStyle=0;fontColor=#333333;" parent="1" vertex="1">
          <mxGeometry x="1710" y="620" width="300" height="220" as="geometry" />
        </mxCell>
        <mxCell id="sd-RvYlaweVp6N_bchjU-39" value="SendGrid API" style="ellipse;whiteSpace=wrap;html=1;aspect=fixed;" parent="sd-RvYlaweVp6N_bchjU-38" vertex="1">
          <mxGeometry x="30" y="80" width="80" height="80" as="geometry" />
        </mxCell>
        <mxCell id="sd-RvYlaweVp6N_bchjU-40" value="Twilio API" style="ellipse;whiteSpace=wrap;html=1;aspect=fixed;" parent="1" vertex="1">
          <mxGeometry x="1880" y="700" width="80" height="80" as="geometry" />
        </mxCell>
        <mxCell id="sd-RvYlaweVp6N_bchjU-41" style="edgeStyle=orthogonalEdgeStyle;rounded=0;orthogonalLoop=1;jettySize=auto;html=1;entryX=0.73;entryY=-0.009;entryDx=0;entryDy=0;entryPerimeter=0;fillColor=#d5e8d4;strokeColor=#82b366;strokeWidth=2;" parent="1" source="sd-RvYlaweVp6N_bchjU-30" target="sd-RvYlaweVp6N_bchjU-38" edge="1">
          <mxGeometry relative="1" as="geometry" />
        </mxCell>
        <mxCell id="sd-RvYlaweVp6N_bchjU-42" style="edgeStyle=orthogonalEdgeStyle;rounded=0;orthogonalLoop=1;jettySize=auto;html=1;entryX=0.327;entryY=-0.023;entryDx=0;entryDy=0;entryPerimeter=0;fillColor=#d5e8d4;strokeColor=#82b366;strokeWidth=2;" parent="1" source="sd-RvYlaweVp6N_bchjU-33" target="sd-RvYlaweVp6N_bchjU-38" edge="1">
          <mxGeometry relative="1" as="geometry">
            <Array as="points">
              <mxPoint x="1810" y="201" />
              <mxPoint x="1810" y="426" />
              <mxPoint x="1808" y="426" />
            </Array>
          </mxGeometry>
        </mxCell>
        <mxCell id="sd-RvYlaweVp6N_bchjU-43" style="edgeStyle=orthogonalEdgeStyle;rounded=0;orthogonalLoop=1;jettySize=auto;html=1;fillColor=#d5e8d4;strokeColor=#82b366;strokeWidth=2;entryX=0.317;entryY=0.038;entryDx=0;entryDy=0;entryPerimeter=0;" parent="1" source="sd-RvYlaweVp6N_bchjU-24" target="sd-RvYlaweVp6N_bchjU-37" edge="1">
          <mxGeometry relative="1" as="geometry">
            <Array as="points">
              <mxPoint x="1610" y="411" />
              <mxPoint x="1610" y="723" />
            </Array>
          </mxGeometry>
        </mxCell>
        <mxCell id="sd-RvYlaweVp6N_bchjU-44" style="edgeStyle=orthogonalEdgeStyle;rounded=0;orthogonalLoop=1;jettySize=auto;html=1;entryX=0.75;entryY=0.038;entryDx=0;entryDy=0;entryPerimeter=0;fillColor=#d5e8d4;strokeColor=#82b366;strokeWidth=2;" parent="1" source="sd-RvYlaweVp6N_bchjU-23" target="sd-RvYlaweVp6N_bchjU-36" edge="1">
          <mxGeometry relative="1" as="geometry">
            <Array as="points">
              <mxPoint x="1590" y="200" />
              <mxPoint x="1590" y="475" />
              <mxPoint x="1560" y="475" />
              <mxPoint x="1560" y="723" />
            </Array>
          </mxGeometry>
        </mxCell>
        <mxCell id="PIq4N967UhMmvGUoV6qf-51" style="edgeStyle=orthogonalEdgeStyle;rounded=0;orthogonalLoop=1;jettySize=auto;html=1;fillColor=#f8cecc;strokeColor=#b85450;strokeWidth=3;entryX=0.75;entryY=1;entryDx=0;entryDy=0;" parent="1" source="PIq4N967UhMmvGUoV6qf-31" target="sd-RvYlaweVp6N_bchjU-38" edge="1">
          <mxGeometry relative="1" as="geometry">
            <mxPoint x="1940" y="800" as="targetPoint" />
            <Array as="points">
              <mxPoint x="225" y="1010" />
              <mxPoint x="1940" y="1010" />
              <mxPoint x="1940" y="840" />
            </Array>
          </mxGeometry>
        </mxCell>
        <mxCell id="PIq4N967UhMmvGUoV6qf-57" value="API.&lt;b&gt;Customer&lt;/b&gt;.Core" style="rounded=1;whiteSpace=wrap;html=1;sketch=1;curveFitting=1;jiggle=2;fillColor=#e3c800;fontColor=#000000;strokeColor=#B09500;fontSize=16;fontStyle=1" parent="1" vertex="1">
          <mxGeometry x="720" y="325" width="250" height="60" as="geometry" />
        </mxCell>
      </root>
    </mxGraphModel>
  </diagram>
  <diagram id="XgH6Aj4NYol-GeDoOj6g" name="GitFlow">
    <mxGraphModel dx="1434" dy="836" grid="1" gridSize="10" guides="1" tooltips="1" connect="1" arrows="1" fold="1" page="1" pageScale="1" pageWidth="827" pageHeight="1169" math="0" shadow="0">
      <root>
        <mxCell id="0" />
        <mxCell id="1" parent="0" />
        <mxCell id="vHoBzUih6tfK5VmPXxsg-1" style="edgeStyle=orthogonalEdgeStyle;rounded=0;orthogonalLoop=1;jettySize=auto;html=1;strokeWidth=3;fillColor=#dae8fc;strokeColor=#6c8ebf;" parent="1" source="vHoBzUih6tfK5VmPXxsg-2" target="vHoBzUih6tfK5VmPXxsg-15" edge="1">
          <mxGeometry relative="1" as="geometry">
            <Array as="points">
              <mxPoint x="70" y="320" />
              <mxPoint x="70" y="320" />
            </Array>
          </mxGeometry>
        </mxCell>
        <mxCell id="vHoBzUih6tfK5VmPXxsg-2" value="&lt;div&gt;Main&lt;/div&gt;" style="rounded=1;whiteSpace=wrap;html=1;align=center;fillColor=#dae8fc;strokeColor=#6c8ebf;sketch=1;curveFitting=1;jiggle=2;" parent="1" vertex="1">
          <mxGeometry x="40" y="200" width="240" height="60" as="geometry" />
        </mxCell>
        <mxCell id="vHoBzUih6tfK5VmPXxsg-3" style="edgeStyle=orthogonalEdgeStyle;rounded=0;orthogonalLoop=1;jettySize=auto;html=1;fillColor=#f8cecc;strokeColor=#b85450;strokeWidth=3;" parent="1" edge="1">
          <mxGeometry relative="1" as="geometry">
            <mxPoint x="540" y="260" as="sourcePoint" />
            <mxPoint x="540" y="400" as="targetPoint" />
          </mxGeometry>
        </mxCell>
        <mxCell id="vHoBzUih6tfK5VmPXxsg-4" value="&lt;span style=&quot;font-size: 14px; background-color: rgb(251, 251, 251);&quot;&gt;Cria uma branch&amp;nbsp;&lt;/span&gt;&lt;div style=&quot;font-size: 14px;&quot;&gt;&lt;span style=&quot;font-size: 14px; background-color: rgb(251, 251, 251);&quot;&gt;baseada na develop&lt;/span&gt;&lt;/div&gt;" style="edgeLabel;html=1;align=center;verticalAlign=middle;resizable=0;points=[];fontSize=14;" parent="vHoBzUih6tfK5VmPXxsg-3" vertex="1" connectable="0">
          <mxGeometry x="-0.1429" y="2" relative="1" as="geometry">
            <mxPoint as="offset" />
          </mxGeometry>
        </mxCell>
        <mxCell id="vHoBzUih6tfK5VmPXxsg-5" style="edgeStyle=orthogonalEdgeStyle;rounded=0;orthogonalLoop=1;jettySize=auto;html=1;entryX=0;entryY=0.75;entryDx=0;entryDy=0;strokeWidth=3;fillColor=#f8cecc;strokeColor=#b85450;" parent="1" source="vHoBzUih6tfK5VmPXxsg-7" target="vHoBzUih6tfK5VmPXxsg-21" edge="1">
          <mxGeometry relative="1" as="geometry" />
        </mxCell>
        <mxCell id="vHoBzUih6tfK5VmPXxsg-6" value="mesclar merge na&amp;nbsp;&lt;div style=&quot;font-size: 14px;&quot;&gt;merge&amp;nbsp; release&amp;nbsp;&lt;/div&gt;" style="edgeLabel;html=1;align=center;verticalAlign=middle;resizable=0;points=[];fontSize=14;" parent="vHoBzUih6tfK5VmPXxsg-5" vertex="1" connectable="0">
          <mxGeometry x="0.012" y="-1" relative="1" as="geometry">
            <mxPoint as="offset" />
          </mxGeometry>
        </mxCell>
        <mxCell id="vHoBzUih6tfK5VmPXxsg-7" value="&lt;div&gt;Develop&lt;/div&gt;" style="rounded=1;whiteSpace=wrap;html=1;align=center;fillColor=#f8cecc;strokeColor=#b85450;sketch=1;curveFitting=1;jiggle=2;" parent="1" vertex="1">
          <mxGeometry x="520" y="200" width="240" height="60" as="geometry" />
        </mxCell>
        <mxCell id="vHoBzUih6tfK5VmPXxsg-8" style="edgeStyle=orthogonalEdgeStyle;rounded=0;orthogonalLoop=1;jettySize=auto;html=1;entryX=0.083;entryY=0;entryDx=0;entryDy=0;fillColor=#d5e8d4;strokeColor=#82b366;strokeWidth=3;entryPerimeter=0;exitX=0.075;exitY=1.1;exitDx=0;exitDy=0;exitPerimeter=0;" parent="1" source="vHoBzUih6tfK5VmPXxsg-12" target="vHoBzUih6tfK5VmPXxsg-21" edge="1">
          <mxGeometry relative="1" as="geometry" />
        </mxCell>
        <mxCell id="vHoBzUih6tfK5VmPXxsg-9" value="&lt;span style=&quot;font-size: 14px; background-color: rgb(251, 251, 251);&quot;&gt;Cria uma branch&amp;nbsp;&lt;/span&gt;&lt;div style=&quot;font-size: 14px;&quot;&gt;&lt;span style=&quot;font-size: 14px; background-color: rgb(251, 251, 251);&quot;&gt;baseada na release&lt;/span&gt;&lt;/div&gt;" style="edgeLabel;html=1;align=center;verticalAlign=middle;resizable=0;points=[];fontSize=14;" parent="vHoBzUih6tfK5VmPXxsg-8" vertex="1" connectable="0">
          <mxGeometry x="0.014" y="-3" relative="1" as="geometry">
            <mxPoint x="20" y="-30" as="offset" />
          </mxGeometry>
        </mxCell>
        <mxCell id="vHoBzUih6tfK5VmPXxsg-10" style="edgeStyle=orthogonalEdgeStyle;rounded=0;orthogonalLoop=1;jettySize=auto;html=1;entryX=1;entryY=0.25;entryDx=0;entryDy=0;strokeWidth=3;fillColor=#d5e8d4;strokeColor=#82b366;" parent="1" source="vHoBzUih6tfK5VmPXxsg-12" target="vHoBzUih6tfK5VmPXxsg-25" edge="1">
          <mxGeometry relative="1" as="geometry">
            <Array as="points">
              <mxPoint x="1080" y="75" />
            </Array>
          </mxGeometry>
        </mxCell>
        <mxCell id="vHoBzUih6tfK5VmPXxsg-11" value="mesclar merge na merge main" style="edgeLabel;html=1;align=center;verticalAlign=middle;resizable=0;points=[];fontSize=14;" parent="vHoBzUih6tfK5VmPXxsg-10" vertex="1" connectable="0">
          <mxGeometry x="-0.0021" y="1" relative="1" as="geometry">
            <mxPoint as="offset" />
          </mxGeometry>
        </mxCell>
        <mxCell id="vHoBzUih6tfK5VmPXxsg-12" value="&lt;div&gt;Release&lt;/div&gt;" style="rounded=1;whiteSpace=wrap;html=1;align=center;fillColor=#d5e8d4;strokeColor=#82b366;sketch=1;curveFitting=1;jiggle=2;" parent="1" vertex="1">
          <mxGeometry x="960" y="200" width="240" height="60" as="geometry" />
        </mxCell>
        <mxCell id="vHoBzUih6tfK5VmPXxsg-13" style="edgeStyle=orthogonalEdgeStyle;rounded=0;orthogonalLoop=1;jettySize=auto;html=1;strokeWidth=3;fillColor=#fff2cc;strokeColor=#d6b656;" parent="1" source="vHoBzUih6tfK5VmPXxsg-15" target="vHoBzUih6tfK5VmPXxsg-18" edge="1">
          <mxGeometry relative="1" as="geometry" />
        </mxCell>
        <mxCell id="vHoBzUih6tfK5VmPXxsg-14" value="mesclar merge na merge develop" style="edgeLabel;html=1;align=center;verticalAlign=middle;resizable=0;points=[];fontSize=14;" parent="vHoBzUih6tfK5VmPXxsg-13" vertex="1" connectable="0">
          <mxGeometry x="-0.3" relative="1" as="geometry">
            <mxPoint x="20" as="offset" />
          </mxGeometry>
        </mxCell>
        <mxCell id="vHoBzUih6tfK5VmPXxsg-15" value="&lt;div&gt;us-001&lt;span style=&quot;color: rgba(0, 0, 0, 0); font-family: monospace; font-size: 0px; text-align: start; text-wrap: nowrap; background-color: initial;&quot;&gt;%3CmxGraphModel%3E%3Croot%3E%3CmxCell%20id%3D%220%22%2F%3E%3CmxCell%20id%3D%221%22%20parent%3D%220%22%2F%3E%3CmxCell%20id%3D%222%22%20value%3D%22%26lt%3Bdiv%26gt%3BMain%26lt%3B%2Fdiv%26gt%3B%22%20style%3D%22rounded%3D1%3BwhiteSpace%3Dwrap%3Bhtml%3D1%3Balign%3Dcenter%3BfillColor%3D%23dae8fc%3BstrokeColor%3D%236c8ebf%3Bsketch%3D1%3BcurveFitting%3D1%3Bjiggle%3D2%3B%22%20vertex%3D%221%22%20parent%3D%221%22%3E%3CmxGeometry%20x%3D%2240%22%20y%3D%22100%22%20width%3D%22240%22%20height%3D%2260%22%20as%3D%22geometry%22%2F%3E%3C%2FmxCell%3E%3C%2Froot%3E%3C%2FmxGraphModel%3E&lt;/span&gt;&lt;span style=&quot;background-color: initial; text-wrap: nowrap; color: rgba(0, 0, 0, 0); font-family: monospace; font-size: 0px; text-align: start;&quot;&gt;%3CmxGraphModel%3E%3Croot%3E%3CmxCell%20id%3D%220%22%2F%3E%3CmxCell%20id%3D%221%22%20parent%3D%220%22%2F%3E%3CmxCell%20id%3D%222%22%20value%3D%22%26lt%3Bdiv%26gt%3BMain%26lt%3B%2Fdiv%26gt%3B%22%20style%3D%22rounded%3D1%3BwhiteSpace%3Dwrap%3Bhtml%3D1%3Balign%3Dcenter%3BfillColor%3D%23dae8fc%3BstrokeColor%3D%236c8ebf%3Bsketch%3D1%3BcurveFitting%3D1%3Bjiggle%3D2%3B%22%20vertex%3D%221%22%20parent%3D%221%22%3E%3CmxGeometry%20x%3D%2240%22%20y%3D%22100%22%20width%3D%22240%22%20height%3D%2260%22%20as%3D%22geometry%22%2F%3E%3C%2FmxCell%3E%3C%2Froot%3E%3C%2FmxGraphModel%3E&lt;/span&gt;&lt;span style=&quot;background-color: initial; text-wrap: nowrap; color: rgba(0, 0, 0, 0); font-family: monospace; font-size: 0px; text-align: start;&quot;&gt;%3CmxGraphModel%3E%3Croot%3E%3CmxCell%20id%3D%220%22%2F%3E%3CmxCell%20id%3D%221%22%20parent%3D%220%22%2F%3E%3CmxCell%20id%3D%222%22%20value%3D%22%26lt%3Bdiv%26gt%3BMain%26lt%3B%2Fdiv%26gt%3B%22%20style%3D%22rounded%3D1%3BwhiteSpace%3Dwrap%3Bhtml%3D1%3Balign%3Dcenter%3BfillColor%3D%23dae8fc%3BstrokeColor%3D%236c8ebf%3Bsketch%3D1%3BcurveFitting%3D1%3Bjiggle%3D2%3B%22%20vertex%3D%221%22%20parent%3D%221%22%3E%3CmxGeometry%20x%3D%2240%22%20y%3D%22100%22%20width%3D%22240%22%20height%3D%2260%22%20as%3D%22geometry%22%2F%3E%3C%2FmxCell%3E%3C%2Froot%3E%3C%2FmxGraphModel%3E&lt;/span&gt;&lt;span style=&quot;background-color: initial; text-wrap: nowrap; color: rgba(0, 0, 0, 0); font-family: monospace; font-size: 0px; text-align: start;&quot;&gt;%3CmxGraphModel%3E%3Croot%3E%3CmxCell%20id%3D%220%22%2F%3E%3CmxCell%20id%3D%221%22%20parent%3D%220%22%2F%3E%3CmxCell%20id%3D%222%22%20value%3D%22%26lt%3Bdiv%26gt%3BMain%26lt%3B%2Fdiv%26gt%3B%22%20style%3D%22rounded%3D1%3BwhiteSpace%3Dwrap%3Bhtml%3D1%3Balign%3Dcenter%3BfillColor%3D%23dae8fc%3BstrokeColor%3D%236c8ebf%3Bsketch%3D1%3BcurveFitting%3D1%3Bjiggle%3D2%3B%22%20vertex%3D%221%22%20parent%3D%221%22%3E%3CmxGeometry%20x%3D%2240%22%20y%3D%22100%22%20width%3D%22240%22%20height%3D%2260%22%20as%3D%22geometry%22%2F%3E%3C%2FmxCell%3E%3C%2Froot%3E%3C%2FmxGraphModel%3E&lt;/span&gt;&lt;/div&gt;" style="rounded=1;whiteSpace=wrap;html=1;align=center;fillColor=#ffe6cc;strokeColor=#d79b00;sketch=1;curveFitting=1;jiggle=2;" parent="1" vertex="1">
          <mxGeometry x="40" y="380" width="240" height="60" as="geometry" />
        </mxCell>
        <mxCell id="vHoBzUih6tfK5VmPXxsg-16" style="edgeStyle=orthogonalEdgeStyle;rounded=0;orthogonalLoop=1;jettySize=auto;html=1;fillColor=#f8cecc;strokeColor=#b85450;strokeWidth=3;" parent="1" source="vHoBzUih6tfK5VmPXxsg-18" target="vHoBzUih6tfK5VmPXxsg-7" edge="1">
          <mxGeometry relative="1" as="geometry" />
        </mxCell>
        <mxCell id="vHoBzUih6tfK5VmPXxsg-17" value="pr para develop" style="edgeLabel;html=1;align=center;verticalAlign=middle;resizable=0;points=[];fontSize=14;" parent="vHoBzUih6tfK5VmPXxsg-16" vertex="1" connectable="0">
          <mxGeometry x="-0.1714" y="-2" relative="1" as="geometry">
            <mxPoint x="40" as="offset" />
          </mxGeometry>
        </mxCell>
        <mxCell id="vHoBzUih6tfK5VmPXxsg-18" value="&lt;div&gt;merge-develop/us-001&lt;/div&gt;" style="rounded=1;whiteSpace=wrap;html=1;align=center;fillColor=#f8cecc;strokeColor=#b85450;sketch=1;curveFitting=1;jiggle=2;" parent="1" vertex="1">
          <mxGeometry x="520" y="400" width="240" height="60" as="geometry" />
        </mxCell>
        <mxCell id="vHoBzUih6tfK5VmPXxsg-19" style="edgeStyle=orthogonalEdgeStyle;rounded=0;orthogonalLoop=1;jettySize=auto;html=1;entryX=0.5;entryY=1;entryDx=0;entryDy=0;fillColor=#d5e8d4;strokeColor=#82b366;strokeWidth=3;" parent="1" source="vHoBzUih6tfK5VmPXxsg-21" target="vHoBzUih6tfK5VmPXxsg-12" edge="1">
          <mxGeometry relative="1" as="geometry" />
        </mxCell>
        <mxCell id="vHoBzUih6tfK5VmPXxsg-20" value="pr para release" style="edgeLabel;html=1;align=center;verticalAlign=middle;resizable=0;points=[];fontSize=14;" parent="vHoBzUih6tfK5VmPXxsg-19" vertex="1" connectable="0">
          <mxGeometry x="0.0286" y="1" relative="1" as="geometry">
            <mxPoint x="50" as="offset" />
          </mxGeometry>
        </mxCell>
        <mxCell id="vHoBzUih6tfK5VmPXxsg-21" value="&lt;div&gt;merge-release/us-001&lt;/div&gt;" style="rounded=1;whiteSpace=wrap;html=1;align=center;fillColor=#d5e8d4;strokeColor=#82b366;sketch=1;curveFitting=1;jiggle=2;" parent="1" vertex="1">
          <mxGeometry x="960" y="400" width="240" height="60" as="geometry" />
        </mxCell>
        <mxCell id="vHoBzUih6tfK5VmPXxsg-22" style="edgeStyle=orthogonalEdgeStyle;rounded=0;orthogonalLoop=1;jettySize=auto;html=1;entryX=0.5;entryY=0;entryDx=0;entryDy=0;strokeWidth=3;fillColor=#dae8fc;strokeColor=#6c8ebf;" parent="1" source="vHoBzUih6tfK5VmPXxsg-25" target="vHoBzUih6tfK5VmPXxsg-2" edge="1">
          <mxGeometry relative="1" as="geometry" />
        </mxCell>
        <mxCell id="vHoBzUih6tfK5VmPXxsg-23" value="pr para main" style="edgeLabel;html=1;align=center;verticalAlign=middle;resizable=0;points=[];fontSize=14;" parent="vHoBzUih6tfK5VmPXxsg-22" vertex="1" connectable="0">
          <mxGeometry x="-0.1442" relative="1" as="geometry">
            <mxPoint as="offset" />
          </mxGeometry>
        </mxCell>
        <mxCell id="vHoBzUih6tfK5VmPXxsg-24" value="Text" style="edgeLabel;html=1;align=center;verticalAlign=middle;resizable=0;points=[];" parent="vHoBzUih6tfK5VmPXxsg-22" vertex="1" connectable="0">
          <mxGeometry x="-0.2186" y="1" relative="1" as="geometry">
            <mxPoint as="offset" />
          </mxGeometry>
        </mxCell>
        <mxCell id="vHoBzUih6tfK5VmPXxsg-25" value="merge-main/us-001" style="rounded=1;whiteSpace=wrap;html=1;align=center;fillColor=#dae8fc;strokeColor=#6c8ebf;sketch=1;curveFitting=1;jiggle=2;" parent="1" vertex="1">
          <mxGeometry x="480" y="60" width="240" height="60" as="geometry" />
        </mxCell>
        <mxCell id="vHoBzUih6tfK5VmPXxsg-26" style="edgeStyle=orthogonalEdgeStyle;rounded=0;orthogonalLoop=1;jettySize=auto;html=1;entryX=0.079;entryY=0.967;entryDx=0;entryDy=0;entryPerimeter=0;strokeWidth=3;fillColor=#dae8fc;strokeColor=#6c8ebf;" parent="1" source="vHoBzUih6tfK5VmPXxsg-2" target="vHoBzUih6tfK5VmPXxsg-25" edge="1">
          <mxGeometry relative="1" as="geometry" />
        </mxCell>
        <mxCell id="vHoBzUih6tfK5VmPXxsg-27" value="&lt;span style=&quot;font-size: 14px; background-color: rgb(251, 251, 251);&quot;&gt;Cria uma branch&amp;nbsp;&lt;/span&gt;&lt;div style=&quot;font-size: 14px;&quot;&gt;&lt;span style=&quot;font-size: 14px; background-color: rgb(251, 251, 251);&quot;&gt;baseada na main&lt;/span&gt;&lt;/div&gt;" style="edgeLabel;html=1;align=center;verticalAlign=middle;resizable=0;points=[];fontSize=14;" parent="vHoBzUih6tfK5VmPXxsg-26" vertex="1" connectable="0">
          <mxGeometry x="-0.3534" y="-1" relative="1" as="geometry">
            <mxPoint as="offset" />
          </mxGeometry>
        </mxCell>
        <mxCell id="vHoBzUih6tfK5VmPXxsg-28" value="Cria uma branch baseada na main" style="text;html=1;align=center;verticalAlign=middle;resizable=0;points=[];autosize=1;strokeColor=none;fillColor=none;fontSize=14;" parent="1" vertex="1">
          <mxGeometry x="55" y="300" width="240" height="30" as="geometry" />
        </mxCell>
      </root>
    </mxGraphModel>
  </diagram>
  <diagram id="hZMz1oF9VF_LuvaXTFJR" name="CQRS">
    <mxGraphModel dx="1434" dy="836" grid="1" gridSize="10" guides="1" tooltips="1" connect="1" arrows="1" fold="1" page="1" pageScale="1" pageWidth="827" pageHeight="1169" math="0" shadow="0">
      <root>
        <mxCell id="0" />
        <mxCell id="1" parent="0" />
        <mxCell id="qqbrNfElm36PvWQ8Rjfe-1" value="RabbitMQ&lt;br&gt;&lt;br&gt;Producer - Produtor&lt;br&gt;Quem reproduz a mensagem&amp;nbsp;&lt;br&gt;&lt;br&gt;Exchange&lt;br&gt;Quem recebe a mensagem e descide para quem vai enviar&amp;nbsp;&lt;br&gt;&lt;br&gt;Queue&lt;br&gt;Fila que recebe a mensagem e entrega para todos os consumers - Comsumidores&amp;nbsp;&lt;br&gt;&lt;br&gt;Consumer - Consumidor&lt;br&gt;Quem escuta a mensagem&amp;nbsp;&lt;br&gt;&lt;br&gt;Mensagem&lt;br&gt;Dados produzidos e executados&amp;nbsp;&lt;br&gt;&lt;br&gt;Topologia&amp;nbsp;&lt;br&gt;É a estrutura de exchanges e Queues&amp;nbsp;&lt;br&gt;&lt;br&gt;3 Tipos de mensagens&amp;nbsp;&lt;br&gt;Command&lt;br&gt;Query&amp;nbsp;&lt;br&gt;Integration Event&lt;br&gt;" style="shape=note;size=68;whiteSpace=wrap;html=1;align=left;fillColor=#fff2cc;strokeColor=#d6b656;fontStyle=1;sketch=1;curveFitting=1;jiggle=2;" parent="1" vertex="1">
          <mxGeometry x="40" y="40" width="456" height="390" as="geometry" />
        </mxCell>
        <mxCell id="qqbrNfElm36PvWQ8Rjfe-2" value="Command" style="rounded=0;whiteSpace=wrap;html=1;fillColor=#d5e8d4;strokeColor=#82b366;sketch=1;curveFitting=1;jiggle=2;" parent="1" vertex="1">
          <mxGeometry x="40" y="540" width="120" height="60" as="geometry" />
        </mxCell>
        <mxCell id="qqbrNfElm36PvWQ8Rjfe-3" value="Command Handler" style="shape=hexagon;perimeter=hexagonPerimeter2;whiteSpace=wrap;html=1;fixedSize=1;fillColor=#d5e8d4;strokeColor=#82b366;sketch=1;curveFitting=1;jiggle=2;" parent="1" vertex="1">
          <mxGeometry x="242" y="520" width="120" height="80" as="geometry" />
        </mxCell>
        <mxCell id="qqbrNfElm36PvWQ8Rjfe-4" value="" style="endArrow=none;dashed=1;html=1;rounded=0;exitX=1;exitY=0.5;exitDx=0;exitDy=0;entryX=0.058;entryY=0.613;entryDx=0;entryDy=0;entryPerimeter=0;fillColor=#d5e8d4;strokeColor=#82b366;strokeWidth=3;sketch=1;curveFitting=1;jiggle=2;" parent="1" source="qqbrNfElm36PvWQ8Rjfe-2" target="qqbrNfElm36PvWQ8Rjfe-3" edge="1">
          <mxGeometry width="50" height="50" relative="1" as="geometry">
            <mxPoint x="250" y="620" as="sourcePoint" />
            <mxPoint x="240" y="570" as="targetPoint" />
          </mxGeometry>
        </mxCell>
        <mxCell id="qqbrNfElm36PvWQ8Rjfe-5" value="Query" style="rounded=0;whiteSpace=wrap;html=1;fillColor=#fff2cc;strokeColor=#d6b656;sketch=1;curveFitting=1;jiggle=2;" parent="1" vertex="1">
          <mxGeometry x="40" y="700" width="120" height="60" as="geometry" />
        </mxCell>
        <mxCell id="qqbrNfElm36PvWQ8Rjfe-6" value="Query&amp;nbsp;Handler" style="shape=hexagon;perimeter=hexagonPerimeter2;whiteSpace=wrap;html=1;fixedSize=1;fillColor=#fff2cc;strokeColor=#d6b656;sketch=1;curveFitting=1;jiggle=2;" parent="1" vertex="1">
          <mxGeometry x="242" y="680" width="120" height="80" as="geometry" />
        </mxCell>
        <mxCell id="qqbrNfElm36PvWQ8Rjfe-7" value="" style="endArrow=none;dashed=1;html=1;rounded=0;exitX=1;exitY=0.5;exitDx=0;exitDy=0;entryX=0.058;entryY=0.613;entryDx=0;entryDy=0;entryPerimeter=0;fillColor=#fff2cc;strokeColor=#d6b656;strokeWidth=3;sketch=1;curveFitting=1;jiggle=2;" parent="1" source="qqbrNfElm36PvWQ8Rjfe-5" target="qqbrNfElm36PvWQ8Rjfe-6" edge="1">
          <mxGeometry width="50" height="50" relative="1" as="geometry">
            <mxPoint x="250" y="780" as="sourcePoint" />
            <mxPoint x="240" y="730" as="targetPoint" />
          </mxGeometry>
        </mxCell>
        <mxCell id="qqbrNfElm36PvWQ8Rjfe-8" value="Envia uma query para aplicação&lt;br&gt;Algo que eu precise consultar&amp;nbsp;" style="shape=note;size=20;whiteSpace=wrap;html=1;fillColor=#fff2cc;strokeColor=#d6b656;sketch=1;curveFitting=1;jiggle=2;" parent="1" vertex="1">
          <mxGeometry x="400" y="670" width="150" height="90" as="geometry" />
        </mxCell>
        <mxCell id="qqbrNfElm36PvWQ8Rjfe-9" value="Domain Event" style="rounded=0;whiteSpace=wrap;html=1;fillColor=#dae8fc;strokeColor=#6c8ebf;sketch=1;curveFitting=1;jiggle=2;" parent="1" vertex="1">
          <mxGeometry x="40" y="860" width="120" height="60" as="geometry" />
        </mxCell>
        <mxCell id="qqbrNfElm36PvWQ8Rjfe-10" value="Domain Event Handler" style="shape=hexagon;perimeter=hexagonPerimeter2;whiteSpace=wrap;html=1;fixedSize=1;fillColor=#dae8fc;strokeColor=#6c8ebf;sketch=1;curveFitting=1;jiggle=2;" parent="1" vertex="1">
          <mxGeometry x="242" y="840" width="120" height="80" as="geometry" />
        </mxCell>
        <mxCell id="qqbrNfElm36PvWQ8Rjfe-11" value="" style="endArrow=none;dashed=1;html=1;rounded=0;exitX=1;exitY=0.5;exitDx=0;exitDy=0;entryX=0.058;entryY=0.613;entryDx=0;entryDy=0;entryPerimeter=0;fillColor=#dae8fc;strokeColor=#6c8ebf;strokeWidth=3;sketch=1;curveFitting=1;jiggle=2;" parent="1" source="qqbrNfElm36PvWQ8Rjfe-9" target="qqbrNfElm36PvWQ8Rjfe-10" edge="1">
          <mxGeometry width="50" height="50" relative="1" as="geometry">
            <mxPoint x="250" y="940" as="sourcePoint" />
            <mxPoint x="240" y="890" as="targetPoint" />
          </mxGeometry>
        </mxCell>
        <mxCell id="qqbrNfElm36PvWQ8Rjfe-12" value="Publica para a propria aplicção saber" style="shape=note;size=20;whiteSpace=wrap;html=1;fillColor=#dae8fc;strokeColor=#6c8ebf;sketch=1;curveFitting=1;jiggle=2;" parent="1" vertex="1">
          <mxGeometry x="400" y="830" width="150" height="90" as="geometry" />
        </mxCell>
        <mxCell id="qqbrNfElm36PvWQ8Rjfe-13" value="Executa e altera aplicação" style="shape=note;size=20;whiteSpace=wrap;html=1;fillColor=#d5e8d4;strokeColor=#82b366;sketch=1;curveFitting=1;jiggle=2;" parent="1" vertex="1">
          <mxGeometry x="400" y="510" width="150" height="90" as="geometry" />
        </mxCell>
        <mxCell id="qqbrNfElm36PvWQ8Rjfe-14" value="Event" style="rounded=0;whiteSpace=wrap;html=1;fillColor=#ffe6cc;strokeColor=#d79b00;sketch=1;curveFitting=1;jiggle=2;" parent="1" vertex="1">
          <mxGeometry x="40" y="1020" width="120" height="60" as="geometry" />
        </mxCell>
        <mxCell id="qqbrNfElm36PvWQ8Rjfe-15" value="Event Handler" style="shape=hexagon;perimeter=hexagonPerimeter2;whiteSpace=wrap;html=1;fixedSize=1;fillColor=#ffe6cc;strokeColor=#d79b00;sketch=1;curveFitting=1;jiggle=2;" parent="1" vertex="1">
          <mxGeometry x="242" y="1000" width="120" height="80" as="geometry" />
        </mxCell>
        <mxCell id="qqbrNfElm36PvWQ8Rjfe-16" value="" style="endArrow=none;dashed=1;html=1;rounded=0;exitX=1;exitY=0.5;exitDx=0;exitDy=0;entryX=0.058;entryY=0.613;entryDx=0;entryDy=0;entryPerimeter=0;fillColor=#ffe6cc;strokeColor=#d79b00;strokeWidth=3;sketch=1;curveFitting=1;jiggle=2;" parent="1" source="qqbrNfElm36PvWQ8Rjfe-14" target="qqbrNfElm36PvWQ8Rjfe-15" edge="1">
          <mxGeometry width="50" height="50" relative="1" as="geometry">
            <mxPoint x="250" y="1100" as="sourcePoint" />
            <mxPoint x="240" y="1050" as="targetPoint" />
          </mxGeometry>
        </mxCell>
        <mxCell id="qqbrNfElm36PvWQ8Rjfe-17" value="Evento de integração&amp;nbsp;&lt;br&gt;Alguma coisa que aconteceu e eu quero publicar para o resto dos micro serviços&amp;nbsp;" style="shape=note;size=20;whiteSpace=wrap;html=1;fillColor=#ffe6cc;strokeColor=#d79b00;sketch=1;curveFitting=1;jiggle=2;" parent="1" vertex="1">
          <mxGeometry x="400" y="990" width="150" height="90" as="geometry" />
        </mxCell>
        <mxCell id="qqbrNfElm36PvWQ8Rjfe-18" style="edgeStyle=orthogonalEdgeStyle;rounded=0;orthogonalLoop=1;jettySize=auto;html=1;exitX=0.632;exitY=-0.025;exitDx=0;exitDy=0;exitPerimeter=0;fillColor=#dae8fc;strokeColor=#6c8ebf;strokeWidth=3;sketch=1;curveFitting=1;jiggle=2;" parent="1" edge="1">
          <mxGeometry relative="1" as="geometry">
            <mxPoint x="110" y="1407.08" as="sourcePoint" />
            <mxPoint x="248" y="1542" as="targetPoint" />
            <Array as="points">
              <mxPoint x="110" y="1420" />
              <mxPoint x="248" y="1420" />
            </Array>
          </mxGeometry>
        </mxCell>
        <mxCell id="qqbrNfElm36PvWQ8Rjfe-19" value="Client" style="rounded=0;whiteSpace=wrap;html=1;rotation=90;verticalAlign=middle;horizontal=0;fontStyle=1;fillColor=#f5f5f5;fontColor=#333333;strokeColor=#666666;sketch=1;curveFitting=1;jiggle=2;" parent="1" vertex="1">
          <mxGeometry x="-15" y="1342" width="190" height="80" as="geometry" />
        </mxCell>
        <mxCell id="qqbrNfElm36PvWQ8Rjfe-20" style="edgeStyle=orthogonalEdgeStyle;rounded=0;orthogonalLoop=1;jettySize=auto;html=1;entryX=0;entryY=0.5;entryDx=0;entryDy=0;fillColor=#dae8fc;strokeColor=#6c8ebf;strokeWidth=3;sketch=1;curveFitting=1;jiggle=2;" parent="1" source="qqbrNfElm36PvWQ8Rjfe-21" target="qqbrNfElm36PvWQ8Rjfe-25" edge="1">
          <mxGeometry relative="1" as="geometry" />
        </mxCell>
        <mxCell id="qqbrNfElm36PvWQ8Rjfe-21" value="Command" style="rounded=1;whiteSpace=wrap;html=1;fillColor=#f8cecc;strokeColor=#b85450;sketch=1;curveFitting=1;jiggle=2;" parent="1" vertex="1">
          <mxGeometry x="202" y="1162" width="120" height="60" as="geometry" />
        </mxCell>
        <mxCell id="qqbrNfElm36PvWQ8Rjfe-22" style="edgeStyle=orthogonalEdgeStyle;rounded=0;orthogonalLoop=1;jettySize=auto;html=1;entryX=0;entryY=0.5;entryDx=0;entryDy=0;fillColor=#dae8fc;strokeColor=#6c8ebf;strokeWidth=3;sketch=1;curveFitting=1;jiggle=2;" parent="1" source="qqbrNfElm36PvWQ8Rjfe-23" target="qqbrNfElm36PvWQ8Rjfe-26" edge="1">
          <mxGeometry relative="1" as="geometry" />
        </mxCell>
        <mxCell id="qqbrNfElm36PvWQ8Rjfe-23" value="Query" style="rounded=1;whiteSpace=wrap;html=1;fillColor=#f8cecc;strokeColor=#b85450;sketch=1;curveFitting=1;jiggle=2;" parent="1" vertex="1">
          <mxGeometry x="200" y="1542" width="120" height="60" as="geometry" />
        </mxCell>
        <mxCell id="qqbrNfElm36PvWQ8Rjfe-24" style="edgeStyle=orthogonalEdgeStyle;rounded=0;orthogonalLoop=1;jettySize=auto;html=1;fillColor=#dae8fc;strokeColor=#6c8ebf;strokeWidth=3;sketch=1;curveFitting=1;jiggle=2;" parent="1" source="qqbrNfElm36PvWQ8Rjfe-25" target="qqbrNfElm36PvWQ8Rjfe-28" edge="1">
          <mxGeometry relative="1" as="geometry" />
        </mxCell>
        <mxCell id="qqbrNfElm36PvWQ8Rjfe-25" value="Command Handler" style="rounded=1;whiteSpace=wrap;html=1;fillColor=#d5e8d4;strokeColor=#82b366;sketch=1;curveFitting=1;jiggle=2;" parent="1" vertex="1">
          <mxGeometry x="442" y="1162" width="120" height="60" as="geometry" />
        </mxCell>
        <mxCell id="qqbrNfElm36PvWQ8Rjfe-26" value="Query&amp;nbsp;Handler" style="rounded=1;whiteSpace=wrap;html=1;fillColor=#d5e8d4;strokeColor=#82b366;sketch=1;curveFitting=1;jiggle=2;" parent="1" vertex="1">
          <mxGeometry x="442" y="1542" width="120" height="60" as="geometry" />
        </mxCell>
        <mxCell id="qqbrNfElm36PvWQ8Rjfe-27" style="edgeStyle=orthogonalEdgeStyle;rounded=0;orthogonalLoop=1;jettySize=auto;html=1;fillColor=#dae8fc;strokeColor=#6c8ebf;strokeWidth=3;sketch=1;curveFitting=1;jiggle=2;" parent="1" source="qqbrNfElm36PvWQ8Rjfe-28" target="qqbrNfElm36PvWQ8Rjfe-30" edge="1">
          <mxGeometry relative="1" as="geometry" />
        </mxCell>
        <mxCell id="qqbrNfElm36PvWQ8Rjfe-28" value="Domain" style="rounded=1;whiteSpace=wrap;html=1;fillColor=#f8cecc;strokeColor=#b85450;sketch=1;curveFitting=1;jiggle=2;" parent="1" vertex="1">
          <mxGeometry x="680" y="1162" width="120" height="60" as="geometry" />
        </mxCell>
        <mxCell id="qqbrNfElm36PvWQ8Rjfe-29" style="edgeStyle=orthogonalEdgeStyle;rounded=0;orthogonalLoop=1;jettySize=auto;html=1;entryX=0.75;entryY=0;entryDx=0;entryDy=0;fillColor=#dae8fc;strokeColor=#6c8ebf;strokeWidth=3;sketch=1;curveFitting=1;jiggle=2;" parent="1" source="qqbrNfElm36PvWQ8Rjfe-30" target="qqbrNfElm36PvWQ8Rjfe-33" edge="1">
          <mxGeometry relative="1" as="geometry">
            <Array as="points">
              <mxPoint x="1020" y="1270" />
              <mxPoint x="970" y="1270" />
            </Array>
          </mxGeometry>
        </mxCell>
        <mxCell id="qqbrNfElm36PvWQ8Rjfe-30" value="Event" style="rounded=1;whiteSpace=wrap;html=1;fillColor=#fff2cc;strokeColor=#d6b656;sketch=1;curveFitting=1;jiggle=2;" parent="1" vertex="1">
          <mxGeometry x="960" y="1162" width="120" height="60" as="geometry" />
        </mxCell>
        <mxCell id="qqbrNfElm36PvWQ8Rjfe-31" value="Event Store" style="ellipse;whiteSpace=wrap;html=1;fillColor=#dae8fc;strokeColor=#6c8ebf;sketch=1;curveFitting=1;jiggle=2;" parent="1" vertex="1">
          <mxGeometry x="1040" y="1320" width="120" height="80" as="geometry" />
        </mxCell>
        <mxCell id="qqbrNfElm36PvWQ8Rjfe-32" style="edgeStyle=orthogonalEdgeStyle;rounded=0;orthogonalLoop=1;jettySize=auto;html=1;entryX=0.5;entryY=0;entryDx=0;entryDy=0;fillColor=#dae8fc;strokeColor=#6c8ebf;strokeWidth=3;sketch=1;curveFitting=1;jiggle=2;" parent="1" source="qqbrNfElm36PvWQ8Rjfe-33" target="qqbrNfElm36PvWQ8Rjfe-34" edge="1">
          <mxGeometry relative="1" as="geometry" />
        </mxCell>
        <mxCell id="qqbrNfElm36PvWQ8Rjfe-33" value="Event Handler" style="rounded=1;whiteSpace=wrap;html=1;fillColor=#d5e8d4;strokeColor=#82b366;sketch=1;curveFitting=1;jiggle=2;" parent="1" vertex="1">
          <mxGeometry x="880" y="1340" width="120" height="60" as="geometry" />
        </mxCell>
        <mxCell id="qqbrNfElm36PvWQ8Rjfe-34" value="Database" style="ellipse;whiteSpace=wrap;html=1;fillColor=#dae8fc;strokeColor=#6c8ebf;sketch=1;curveFitting=1;jiggle=2;" parent="1" vertex="1">
          <mxGeometry x="880" y="1522" width="120" height="80" as="geometry" />
        </mxCell>
        <mxCell id="qqbrNfElm36PvWQ8Rjfe-35" style="edgeStyle=orthogonalEdgeStyle;rounded=0;orthogonalLoop=1;jettySize=auto;html=1;entryX=0.375;entryY=1;entryDx=0;entryDy=0;entryPerimeter=0;fillColor=#dae8fc;strokeColor=#6c8ebf;strokeWidth=3;sketch=1;curveFitting=1;jiggle=2;" parent="1" source="qqbrNfElm36PvWQ8Rjfe-19" target="qqbrNfElm36PvWQ8Rjfe-21" edge="1">
          <mxGeometry relative="1" as="geometry">
            <Array as="points">
              <mxPoint x="247" y="1380" />
            </Array>
          </mxGeometry>
        </mxCell>
        <mxCell id="qqbrNfElm36PvWQ8Rjfe-36" style="edgeStyle=orthogonalEdgeStyle;rounded=0;orthogonalLoop=1;jettySize=auto;html=1;entryX=0.642;entryY=0.038;entryDx=0;entryDy=0;entryPerimeter=0;fillColor=#dae8fc;strokeColor=#6c8ebf;strokeWidth=3;sketch=1;curveFitting=1;jiggle=2;" parent="1" source="qqbrNfElm36PvWQ8Rjfe-30" target="qqbrNfElm36PvWQ8Rjfe-31" edge="1">
          <mxGeometry relative="1" as="geometry">
            <Array as="points">
              <mxPoint x="1040" y="1271" />
              <mxPoint x="1117" y="1271" />
            </Array>
          </mxGeometry>
        </mxCell>
        <mxCell id="qqbrNfElm36PvWQ8Rjfe-37" style="edgeStyle=orthogonalEdgeStyle;rounded=0;orthogonalLoop=1;jettySize=auto;html=1;entryX=0.008;entryY=0.613;entryDx=0;entryDy=0;entryPerimeter=0;fillColor=#dae8fc;strokeColor=#6c8ebf;strokeWidth=3;sketch=1;curveFitting=1;jiggle=2;" parent="1" source="qqbrNfElm36PvWQ8Rjfe-26" target="qqbrNfElm36PvWQ8Rjfe-34" edge="1">
          <mxGeometry relative="1" as="geometry" />
        </mxCell>
        <mxCell id="qqbrNfElm36PvWQ8Rjfe-38" value="" style="shape=note;size=39;whiteSpace=wrap;html=1;align=left;fillColor=#fff2cc;strokeColor=#d6b656;fontStyle=1;sketch=1;curveFitting=1;jiggle=2;" parent="1" vertex="1">
          <mxGeometry x="474" y="1290" width="202" height="170" as="geometry" />
        </mxCell>
        <mxCell id="qqbrNfElm36PvWQ8Rjfe-39" value="Event Sourcing With CQRS" style="text;html=1;strokeColor=none;fillColor=none;align=center;verticalAlign=middle;whiteSpace=wrap;rounded=0;sketch=1;curveFitting=1;jiggle=2;" parent="1" vertex="1">
          <mxGeometry x="500" y="1370" width="130" height="30" as="geometry" />
        </mxCell>
        <mxCell id="qqbrNfElm36PvWQ8Rjfe-40" value="CQRS - Pattern" style="rounded=0;whiteSpace=wrap;html=1;sketch=1;curveFitting=1;jiggle=2;strokeWidth=3;" parent="1" vertex="1">
          <mxGeometry x="846" y="20" width="790" height="60" as="geometry" />
        </mxCell>
        <mxCell id="qqbrNfElm36PvWQ8Rjfe-41" value="" style="edgeStyle=orthogonalEdgeStyle;rounded=0;orthogonalLoop=1;jettySize=auto;html=1;sketch=1;curveFitting=1;jiggle=2;strokeWidth=3;" parent="1" source="qqbrNfElm36PvWQ8Rjfe-43" target="qqbrNfElm36PvWQ8Rjfe-45" edge="1">
          <mxGeometry relative="1" as="geometry">
            <Array as="points">
              <mxPoint x="890" y="250" />
            </Array>
          </mxGeometry>
        </mxCell>
        <mxCell id="qqbrNfElm36PvWQ8Rjfe-42" value="" style="edgeStyle=orthogonalEdgeStyle;rounded=0;orthogonalLoop=1;jettySize=auto;html=1;sketch=1;curveFitting=1;jiggle=2;strokeWidth=3;" parent="1" source="qqbrNfElm36PvWQ8Rjfe-43" target="qqbrNfElm36PvWQ8Rjfe-46" edge="1">
          <mxGeometry relative="1" as="geometry">
            <Array as="points">
              <mxPoint x="887" y="580" />
            </Array>
          </mxGeometry>
        </mxCell>
        <mxCell id="qqbrNfElm36PvWQ8Rjfe-43" value="API" style="rounded=0;whiteSpace=wrap;html=1;fillColor=#f8cecc;strokeColor=#b85450;sketch=1;curveFitting=1;jiggle=2;" parent="1" vertex="1">
          <mxGeometry x="827" y="380" width="120" height="60" as="geometry" />
        </mxCell>
        <mxCell id="qqbrNfElm36PvWQ8Rjfe-44" style="edgeStyle=orthogonalEdgeStyle;rounded=0;orthogonalLoop=1;jettySize=auto;html=1;entryX=0;entryY=0;entryDx=0;entryDy=52.5;entryPerimeter=0;sketch=1;curveFitting=1;jiggle=2;strokeWidth=3;" parent="1" source="qqbrNfElm36PvWQ8Rjfe-45" target="qqbrNfElm36PvWQ8Rjfe-47" edge="1">
          <mxGeometry relative="1" as="geometry">
            <mxPoint x="1390" y="250" as="targetPoint" />
          </mxGeometry>
        </mxCell>
        <mxCell id="qqbrNfElm36PvWQ8Rjfe-45" value="Command" style="rounded=0;whiteSpace=wrap;html=1;fillColor=#ffe6cc;strokeColor=#d79b00;sketch=1;curveFitting=1;jiggle=2;" parent="1" vertex="1">
          <mxGeometry x="1046" y="220" width="120" height="60" as="geometry" />
        </mxCell>
        <mxCell id="qqbrNfElm36PvWQ8Rjfe-46" value="Query" style="rounded=0;whiteSpace=wrap;html=1;fillColor=#d5e8d4;strokeColor=#82b366;sketch=1;curveFitting=1;jiggle=2;" parent="1" vertex="1">
          <mxGeometry x="1040" y="540" width="120" height="60" as="geometry" />
        </mxCell>
        <mxCell id="qqbrNfElm36PvWQ8Rjfe-47" value="Database" style="shape=cylinder3;whiteSpace=wrap;html=1;boundedLbl=1;backgroundOutline=1;size=15;fillColor=#fff2cc;strokeColor=#d6b656;" parent="1" vertex="1">
          <mxGeometry x="1400" y="195" width="60" height="80" as="geometry" />
        </mxCell>
        <mxCell id="qqbrNfElm36PvWQ8Rjfe-48" value="Redis" style="shape=cylinder3;whiteSpace=wrap;html=1;boundedLbl=1;backgroundOutline=1;size=15;fillColor=#e1d5e7;strokeColor=#9673a6;" parent="1" vertex="1">
          <mxGeometry x="1400" y="520" width="60" height="80" as="geometry" />
        </mxCell>
        <mxCell id="qqbrNfElm36PvWQ8Rjfe-49" style="edgeStyle=orthogonalEdgeStyle;rounded=0;orthogonalLoop=1;jettySize=auto;html=1;entryX=0.05;entryY=0.588;entryDx=0;entryDy=0;entryPerimeter=0;sketch=1;curveFitting=1;jiggle=2;strokeWidth=3;" parent="1" source="qqbrNfElm36PvWQ8Rjfe-46" target="qqbrNfElm36PvWQ8Rjfe-48" edge="1">
          <mxGeometry relative="1" as="geometry" />
        </mxCell>
        <mxCell id="qqbrNfElm36PvWQ8Rjfe-50" style="edgeStyle=orthogonalEdgeStyle;rounded=0;orthogonalLoop=1;jettySize=auto;html=1;entryX=1;entryY=0;entryDx=0;entryDy=15;entryPerimeter=0;sketch=1;curveFitting=1;jiggle=2;strokeWidth=3;" parent="1" source="qqbrNfElm36PvWQ8Rjfe-47" target="qqbrNfElm36PvWQ8Rjfe-48" edge="1">
          <mxGeometry relative="1" as="geometry">
            <Array as="points">
              <mxPoint x="1560" y="235" />
              <mxPoint x="1560" y="535" />
            </Array>
          </mxGeometry>
        </mxCell>
      </root>
    </mxGraphModel>
  </diagram>
</mxfile>
